{"glyphs":{"0":{"ha":868,"x_min":0,"x_max":0,"o":"m 817 506 b 425 1053 817 917 601 1053 b 375 1044 418 1053 389 1053 b 268 983 331 1021 282 993 b 51 517 56 832 51 610 b 421 -8 51 164 251 -8 b 817 506 524 -8 817 110 z m 697 518 b 429 79 697 278 589 79 b 158 521 308 79 158 235 b 426 950 158 721 233 950 b 697 518 635 950 697 681 z "},"1":{"ha":347,"x_min":0,"x_max":0,"o":"m 236 1053 b 13 885 199 1026 43 911 l 129 876 l 124 260 b 74 0 122 154 122 124 l 261 0 b 225 203 232 76 224 114 z "},"2":{"ha":694,"x_min":0,"x_max":0,"o":"m 167 676 b 149 775 156 715 149 742 b 328 944 149 851 206 944 b 506 774 425 944 506 878 b 256 332 506 676 438 575 b 19 3 121 153 79 94 l 639 0 l 667 169 b 386 99 611 132 553 104 l 200 90 l 510 526 b 619 779 582 629 619 682 b 350 1053 619 921 500 1053 b 53 779 178 1053 39 942 z "},"3":{"ha":694,"x_min":0,"x_max":0,"o":"m 226 492 b 438 461 288 493 364 494 b 536 303 489 439 536 378 b 300 69 536 193 450 69 b 104 215 151 69 118 171 l 15 40 b 276 -10 58 19 122 -10 b 656 300 592 -10 656 221 b 399 581 656 332 656 531 l 653 1046 l 47 1046 b 46 993 50 1028 50 1018 l 29 879 b 326 950 88 917 149 950 l 492 950 z "},"4":{"ha":767,"x_min":0,"x_max":0,"o":"m 550 724 b 557 1053 550 724 553 947 l 478 1053 b 318 831 447 990 360 881 l 101 569 l 53 514 b 21 490 38 496 33 494 l 21 403 b 128 407 51 406 97 407 l 447 407 l 447 200 b 393 0 447 94 428 54 l 596 0 b 550 217 565 68 550 101 l 550 407 l 607 407 b 750 369 668 407 704 404 l 750 525 b 638 503 697 503 694 503 l 550 503 z m 142 503 b 447 876 365 764 392 796 l 447 503 z "},"5":{"ha":694,"x_min":0,"x_max":0,"o":"m 638 1046 l 122 1046 b 132 965 129 1019 132 1010 l 138 488 b 281 511 179 500 218 511 b 535 301 433 511 535 419 b 310 81 535 193 432 81 b 99 211 207 81 150 147 l 21 58 b 285 -10 72 29 142 -10 b 642 319 504 -10 642 146 b 344 619 642 515 503 619 b 242 604 296 619 267 611 l 236 958 l 379 958 b 594 900 488 958 522 943 z "},"6":{"ha":724,"x_min":0,"x_max":0,"o":"m 450 1046 b 133 536 372 911 349 874 b 42 279 51 401 42 331 b 347 -10 42 107 189 -10 b 693 301 569 -10 693 153 b 397 604 693 444 600 604 b 292 583 350 604 326 596 b 656 1043 385 756 497 919 z m 574 307 b 364 92 574 208 508 92 b 156 292 178 92 156 246 b 375 519 156 410 247 519 b 574 307 449 519 574 475 z "},"7":{"ha":694,"x_min":0,"x_max":0,"o":"m 679 1042 l 136 1042 b 65 1043 100 1042 81 1042 b 28 1047 51 1044 42 1046 l 18 869 b 357 949 86 925 114 949 l 525 949 l 250 288 b 88 0 201 169 151 71 l 306 0 b 301 56 304 10 301 38 b 393 365 301 119 322 197 z "},"8":{"ha":694,"x_min":0,"x_max":0,"o":"m 499 554 b 572 607 524 567 546 579 b 636 775 614 654 636 714 b 357 1053 636 888 551 1053 b 64 775 169 1053 64 913 b 124 610 64 715 86 656 b 203 553 147 582 171 569 b 26 282 143 519 26 451 b 344 -10 26 117 165 -10 b 668 292 528 -10 668 117 b 499 554 668 369 644 481 z m 525 768 b 351 583 525 692 478 583 b 175 765 256 583 175 657 b 353 956 175 921 296 956 b 525 768 469 956 525 854 z m 553 290 b 350 94 553 151 438 94 b 147 289 268 94 147 150 b 347 482 147 410 242 482 b 553 290 460 482 553 403 z "},"9":{"ha":724,"x_min":0,"x_max":0,"o":"m 278 186 b 129 0 274 181 207 74 l 335 0 b 488 333 346 110 410 214 b 676 757 603 511 676 626 b 358 1053 676 944 518 1053 b 35 749 182 1053 35 926 b 303 461 35 596 147 461 b 478 511 372 461 429 488 z m 543 654 b 353 560 489 599 443 560 b 146 751 190 560 146 682 b 364 951 146 854 226 951 b 564 758 492 951 564 863 b 543 654 564 724 558 700 z "}," ":{"ha":463,"x_min":0,"x_max":0,"o":""},"!":{"ha":289,"x_min":0,"x_max":0,"o":"m 199 708 b 261 1044 199 897 207 951 l 31 1044 b 92 735 71 967 92 926 l 92 515 b 139 222 92 392 99 331 l 153 222 b 199 494 178 289 199 350 z m 144 167 b 63 75 93 167 63 122 b 143 -14 63 13 104 -14 b 228 79 189 -14 228 24 b 144 167 228 121 200 167 z "},"\"":{"ha":492,"x_min":0,"x_max":0,"o":"m 104 692 l 165 692 l 196 882 l 196 1044 l 71 1044 l 71 882 z m 329 692 l 389 692 l 421 882 l 421 1044 l 296 1044 l 296 882 z "},"#":{"ha":926,"x_min":0,"x_max":0,"o":"m 765 426 l 629 426 l 658 632 l 804 632 l 804 710 l 668 710 l 711 1015 l 626 1015 l 583 710 l 403 710 l 446 1015 l 361 1015 l 318 710 l 163 710 l 163 632 l 308 632 l 279 426 l 124 426 l 124 349 l 268 349 l 225 43 l 311 43 l 353 349 l 533 349 l 490 43 l 576 43 l 618 349 l 765 349 z m 574 632 l 544 426 l 364 426 l 393 632 z "},"$":{"ha":694,"x_min":0,"x_max":0,"o":"m 375 908 b 579 811 461 903 524 867 l 579 985 b 518 981 558 983 538 981 b 375 992 490 981 397 990 l 375 1056 l 304 1056 l 304 992 b 125 935 249 988 185 983 b 35 736 69 890 35 819 b 304 460 35 581 144 521 l 304 76 b 69 213 222 88 133 115 l 69 28 b 304 -8 143 8 190 0 l 304 -160 l 375 -160 l 375 -8 b 661 264 583 0 661 139 b 532 497 661 307 656 419 b 375 564 511 510 497 515 z m 304 590 b 132 760 218 629 132 667 b 304 908 132 860 213 896 z m 375 435 b 554 244 442 408 554 364 b 488 111 554 192 528 140 b 375 76 450 85 413 81 z "},"%":{"ha":1229,"x_min":0,"x_max":0,"o":"m 1092 240 b 960 44 1092 101 1014 44 b 821 240 894 44 821 104 b 961 431 821 375 899 431 b 1092 240 1022 431 1092 371 z m 983 506 b 728 243 824 519 728 400 b 958 -24 728 33 897 -24 b 1178 242 1058 -24 1178 78 b 983 506 1178 418 1056 472 z m 867 1054 l 285 -24 l 371 -24 l 951 1054 z m 307 1053 b 51 790 147 1067 51 947 b 282 524 51 581 221 524 b 501 789 382 524 501 625 b 307 1053 501 965 379 1019 z m 415 788 b 283 592 415 649 338 592 b 144 788 218 592 144 651 b 285 978 144 922 222 978 b 415 788 346 978 415 918 z "},"&":{"ha":1100,"x_min":0,"x_max":0,"o":"m 1074 874 l 663 881 l 663 743 b 822 793 713 789 731 799 b 739 346 824 640 799 488 b 468 503 651 433 586 458 b 589 688 506 524 589 572 b 375 890 589 783 511 890 b 150 685 238 890 150 785 b 251 506 150 611 189 544 b 40 258 185 481 40 425 b 401 -11 40 108 172 -11 b 765 178 589 -11 713 89 b 878 54 782 160 858 72 b 992 -12 933 0 953 -4 l 1090 69 b 817 268 999 75 981 76 b 928 793 908 449 926 643 b 1069 731 993 790 1007 789 z m 358 549 b 263 686 328 567 263 603 b 372 799 263 747 308 799 b 485 688 435 799 485 749 b 358 549 485 611 419 578 z m 351 443 b 578 343 419 410 469 401 b 690 249 611 325 663 285 b 401 94 643 182 581 94 b 157 260 244 94 157 174 b 351 443 157 369 264 410 z "},"’":{"ha":289,"x_min":0,"x_max":0,"o":"m 125 714 b 268 1044 163 769 242 886 l 85 1044 b 128 954 99 1031 128 1001 b 21 714 128 901 82 821 z "},"(":{"ha":390,"x_min":0,"x_max":0,"o":"m 43 139 b 57 -62 43 81 51 -43 b 258 -226 106 -208 186 -226 b 404 -199 307 -226 343 -218 b 171 -29 310 -182 206 -160 b 138 421 144 65 138 417 b 154 854 138 518 138 776 b 372 1044 165 911 194 929 l 263 1054 b 96 965 128 1001 113 994 b 33 824 79 935 33 850 l 38 767 z "},")":{"ha":390,"x_min":0,"x_max":0,"o":"m 347 689 b 333 890 347 747 339 871 b 132 1054 285 1038 204 1054 b -14 1028 83 1054 47 1046 b 219 857 81 1010 185 988 b 253 407 246 763 253 413 b 236 -25 253 310 253 51 b 18 -217 225 -83 196 -101 l 128 -226 b 296 -136 264 -174 278 -167 b 357 6 311 -107 357 -22 l 354 61 z "},"*":{"ha":738,"x_min":0,"x_max":0,"o":"m 369 1053 l 292 807 l 33 881 l 229 667 l 39 483 l 292 546 l 369 311 l 449 546 l 703 488 b 519 678 643 551 558 646 l 694 893 b 449 804 601 863 542 842 z m 369 785 b 471 682 425 785 471 739 b 369 581 471 626 425 581 b 267 682 313 581 267 626 b 369 785 267 739 313 785 z "},"+":{"ha":926,"x_min":0,"x_max":0,"o":"m 418 397 l 114 397 l 114 306 l 418 306 l 418 0 l 510 0 l 510 306 l 814 306 l 814 397 l 510 397 l 510 703 l 418 703 z "},",":{"ha":333,"x_min":0,"x_max":0,"o":"m 124 -204 b 315 290 207 -53 283 88 l 115 290 b 138 158 126 250 138 211 b 18 -204 138 35 65 -111 z "},"-":{"ha":435,"x_min":0,"x_max":0,"o":"m 24 293 b 86 307 46 301 54 304 b 278 310 150 310 214 310 b 354 306 314 310 336 310 b 410 296 389 297 393 296 l 410 433 b 299 413 346 414 339 413 l 131 413 b 24 426 81 413 53 419 z "},".":{"ha":289,"x_min":0,"x_max":0,"o":"m 229 78 b 143 168 229 132 190 168 b 61 76 97 168 61 129 b 142 -11 61 7 111 -11 b 229 78 179 -11 229 14 z "},"/":{"ha":738,"x_min":0,"x_max":0,"o":"m 446 1054 l 178 -8 l 268 -8 l 535 1054 z "},":":{"ha":289,"x_min":0,"x_max":0,"o":"m 229 78 b 143 168 229 132 190 168 b 61 76 97 168 61 129 b 142 -11 61 7 111 -11 b 229 78 179 -11 229 14 z m 229 649 b 143 739 229 703 190 739 b 61 647 97 739 61 699 b 142 558 61 576 111 558 b 229 649 179 558 229 585 z "},";":{"ha":333,"x_min":0,"x_max":0,"o":"m 124 -204 b 315 290 207 -53 283 88 l 115 290 b 138 158 126 250 138 211 b 18 -204 138 35 65 -111 z m 315 649 b 231 739 315 703 276 739 b 147 647 183 739 147 699 b 228 558 147 576 199 558 b 315 649 267 558 315 585 z "},"<":{"ha":926,"x_min":0,"x_max":0,"o":"m 817 83 l 226 351 l 817 619 l 817 714 l 111 394 l 111 308 l 817 -11 z "},"=":{"ha":926,"x_min":0,"x_max":0,"o":"m 814 536 l 114 536 l 114 444 l 814 444 z m 814 258 l 114 258 l 114 167 l 814 167 z "},">":{"ha":926,"x_min":0,"x_max":0,"o":"m 111 83 l 111 -11 l 817 308 l 817 394 l 111 714 l 111 619 l 701 351 z "},"?":{"ha":550,"x_min":0,"x_max":0,"o":"m 126 222 b 353 457 183 372 213 403 b 490 582 407 478 451 529 b 514 707 514 614 514 692 b 417 974 514 882 450 943 b 172 1054 331 1054 186 1054 b 26 1029 132 1054 121 1051 l 15 861 b 190 953 89 932 110 953 b 406 726 328 953 406 847 b 282 519 406 614 353 551 b 100 335 135 456 100 440 b 110 222 100 288 106 251 z m 126 167 b 47 75 69 167 47 108 b 129 -14 47 28 82 -14 b 211 76 179 -14 211 28 b 126 167 211 125 179 167 z "},"@":{"ha":1403,"x_min":0,"x_max":0,"o":"m 1049 119 b 744 46 961 78 882 46 b 285 483 475 46 285 257 b 729 1008 285 819 486 1008 b 1175 600 1011 1008 1175 779 b 974 286 1175 457 1099 286 b 917 383 903 286 911 360 l 1017 776 l 911 776 l 897 714 b 779 793 881 767 842 793 b 483 424 588 793 483 542 b 633 233 483 260 583 233 b 808 342 721 233 794 318 l 811 342 b 950 233 808 321 847 233 b 1236 600 1135 233 1236 444 b 729 1053 1236 861 1014 1053 b 167 500 428 1053 167 832 b 747 -8 167 292 346 -8 b 1069 78 868 -8 967 25 z m 806 729 b 871 629 850 729 871 693 b 692 301 850 413 753 301 b 592 431 636 301 592 339 b 806 729 592 614 729 729 z "},"A":{"ha":1085,"x_min":0,"x_max":0,"o":"m 585 1053 l 292 467 b 10 0 142 179 138 172 l 204 0 b 304 281 210 69 226 124 l 363 399 b 736 392 529 397 610 396 l 799 240 b 842 61 817 196 842 135 b 832 0 842 54 842 40 l 1064 0 b 985 119 1011 74 994 103 b 843 431 958 164 871 360 z m 407 501 l 563 826 l 699 490 z "},"B":{"ha":708,"x_min":0,"x_max":0,"o":"m 138 188 b 93 0 138 128 138 97 l 318 0 b 610 114 368 0 525 28 b 675 272 661 165 675 226 b 438 560 675 449 499 531 b 629 797 542 621 629 701 b 567 931 629 818 624 872 b 300 1044 490 1008 340 1044 l 93 1044 b 138 840 126 981 138 931 z m 247 963 b 368 939 306 960 332 956 b 490 767 425 914 490 854 b 249 574 490 708 457 589 z m 254 82 l 249 540 b 540 289 358 529 540 432 b 297 82 540 172 424 82 z "},"C":{"ha":926,"x_min":0,"x_max":0,"o":"m 911 235 b 558 89 831 172 726 89 b 172 513 340 89 172 246 b 572 965 172 789 358 965 b 882 838 736 965 835 878 l 882 1018 b 624 1054 815 1033 725 1054 b 39 514 258 1054 39 799 b 551 -11 39 286 203 -11 b 900 67 717 -11 836 40 z "},"D":{"ha":897,"x_min":0,"x_max":0,"o":"m 132 224 b 88 0 132 113 132 103 l 319 0 b 686 153 399 0 571 51 b 840 519 790 244 840 368 b 247 1044 840 828 592 1044 l 88 1044 b 132 806 125 931 132 906 z m 246 958 b 714 492 549 947 714 717 b 538 164 714 324 603 211 b 246 79 425 85 314 81 z "},"E":{"ha":738,"x_min":0,"x_max":0,"o":"m 667 1044 l 93 1044 b 136 814 124 976 136 888 l 136 242 b 82 0 136 119 117 76 l 625 0 l 721 181 b 250 86 565 110 474 92 b 246 174 244 114 244 121 l 253 482 b 506 429 374 475 403 469 l 586 567 l 440 569 l 250 569 l 250 874 l 247 961 b 592 904 439 956 532 925 z "},"F":{"ha":694,"x_min":0,"x_max":0,"o":"m 667 1044 l 90 1044 b 138 768 117 983 138 933 l 138 236 b 100 0 138 110 121 60 l 294 0 b 251 225 272 53 251 101 l 251 486 l 292 486 b 538 440 369 486 374 485 l 604 578 b 251 583 408 575 289 576 l 251 960 l 306 960 b 589 903 417 960 447 950 z "},"G":{"ha":1100,"x_min":0,"x_max":0,"o":"m 854 106 b 669 82 815 96 764 82 b 175 532 279 82 175 356 b 610 961 175 782 358 961 b 954 835 793 961 899 878 l 957 1024 b 631 1056 807 1044 722 1056 b 40 493 192 1056 40 699 b 644 -10 40 286 189 -10 b 974 39 801 -10 907 21 l 971 168 b 975 401 971 192 972 361 b 1028 532 978 446 992 475 l 799 532 b 856 365 850 426 856 415 l 856 168 z "},"H":{"ha":999,"x_min":0,"x_max":0,"o":"m 858 824 b 897 1044 858 914 867 957 l 713 1044 b 749 818 726 1001 749 932 l 749 582 l 247 576 l 247 797 b 281 1044 247 947 267 1003 l 92 1044 b 135 710 131 961 131 936 l 135 236 b 96 0 135 172 133 119 l 286 0 b 247 274 269 50 247 121 l 247 483 l 749 483 l 749 246 b 717 0 749 100 732 49 l 906 0 b 863 335 885 60 863 128 z "},"I":{"ha":376,"x_min":0,"x_max":0,"o":"m 243 850 b 285 1044 243 950 253 975 l 89 1044 b 131 814 124 958 131 935 l 131 217 b 88 0 131 128 125 106 l 285 0 b 244 192 250 103 246 136 z "},"J":{"ha":390,"x_min":0,"x_max":0,"o":"m 146 301 b -37 -233 147 -76 78 -136 l 83 -224 b 253 82 232 -107 246 -25 b 258 369 256 122 258 311 l 258 801 b 304 1044 257 942 274 978 l 99 1044 b 142 840 129 979 140 944 z "},"K":{"ha":940,"x_min":0,"x_max":0,"o":"m 724 913 b 865 1044 763 951 785 975 l 669 1044 b 581 929 633 981 614 961 l 244 574 l 244 806 b 272 1044 244 942 258 993 l 100 1044 b 135 768 119 978 135 911 l 135 265 b 100 0 135 126 114 53 l 283 0 b 244 300 246 92 244 199 l 244 556 l 339 457 l 574 200 b 706 0 683 78 694 42 l 928 0 b 399 574 776 121 428 536 l 469 650 z "},"L":{"ha":681,"x_min":0,"x_max":0,"o":"m 254 793 b 292 1044 254 879 257 965 l 103 1044 b 140 824 125 982 140 938 l 140 283 b 108 0 140 107 122 44 l 596 0 l 667 156 b 260 86 568 119 426 85 b 254 261 254 156 254 219 z "},"M":{"ha":1274,"x_min":0,"x_max":0,"o":"m 342 869 b 222 1044 260 961 238 1011 l 25 1044 b 128 929 44 1024 121 939 b 139 800 140 913 139 875 l 136 271 b 89 0 136 126 119 82 l 290 0 b 243 321 263 60 242 107 l 246 824 b 313 754 281 792 286 785 l 496 550 b 640 381 546 494 593 436 b 678 426 657 404 661 408 l 1024 814 l 1032 133 b 992 0 1032 94 1007 35 l 1194 0 b 1146 168 1149 89 1146 133 l 1139 668 b 1142 949 1138 728 1135 914 b 1213 1044 1144 963 1196 1025 l 1060 1044 b 960 906 1043 1011 1032 988 l 638 542 z "},"N":{"ha":1100,"x_min":0,"x_max":0,"o":"m 307 943 b 239 1044 269 993 261 1006 l 31 1044 b 131 939 78 1001 100 976 b 139 767 136 883 139 831 l 139 228 b 108 0 139 138 133 96 l 275 0 b 239 296 258 47 239 100 l 239 828 l 774 129 b 860 0 806 88 831 43 l 979 0 b 956 182 958 57 956 129 l 956 775 b 990 1044 951 935 964 971 l 804 1044 b 856 731 844 961 856 939 l 856 210 b 703 410 803 275 753 342 z "},"O":{"ha":1172,"x_min":0,"x_max":0,"o":"m 682 -6 b 939 125 793 29 894 92 b 1125 517 1082 228 1125 414 b 578 1054 1125 788 890 1054 b 50 517 293 1054 50 824 b 574 -11 50 206 306 -11 b 682 -6 610 -11 663 -7 z m 871 182 b 626 106 789 136 728 106 b 165 536 419 106 165 233 b 536 935 165 710 254 935 b 1006 482 810 935 1006 711 b 871 182 1006 440 1003 315 z "},"P":{"ha":665,"x_min":0,"x_max":0,"o":"m 143 271 b 108 0 144 160 144 129 l 293 0 b 254 467 258 94 254 104 l 329 467 b 471 485 411 468 429 468 b 638 750 501 497 638 564 b 288 1046 638 888 543 1046 l 97 1046 b 140 810 125 983 139 953 z m 251 858 b 242 975 250 935 247 953 b 374 956 276 975 321 976 b 507 744 458 922 507 831 b 403 551 507 679 478 596 b 254 514 351 521 293 517 z "},"Q":{"ha":1172,"x_min":0,"x_max":0,"o":"m 1122 -225 b 846 40 1063 -175 935 -61 b 1125 524 953 96 1125 279 b 590 1056 1125 833 854 1056 b 49 519 318 1056 49 844 b 186 160 49 386 99 260 b 593 -8 299 32 417 -8 b 643 -6 614 -8 629 -7 b 679 0 657 -4 668 -1 b 1026 -225 785 -97 860 -167 z m 779 119 b 626 97 733 107 697 97 b 171 539 286 97 171 358 b 554 942 171 692 256 942 b 1001 481 814 942 1001 731 b 779 119 1001 265 851 167 z "},"R":{"ha":810,"x_min":0,"x_max":0,"o":"m 138 310 b 100 0 135 101 135 96 l 288 0 b 249 314 256 86 249 210 l 249 476 l 428 246 b 675 0 511 139 588 68 l 800 0 b 421 449 583 226 513 322 l 504 497 b 667 746 581 542 667 601 b 594 928 667 825 633 886 b 357 1044 547 979 432 1044 l 92 1044 b 132 822 126 947 131 936 z m 246 747 b 251 968 246 875 250 929 b 439 917 297 967 368 964 b 544 714 515 865 544 782 b 490 582 544 658 511 604 b 249 489 444 536 333 507 z "},"S":{"ha":608,"x_min":0,"x_max":0,"o":"m 499 840 b 499 1011 499 844 496 957 b 346 1051 461 1029 408 1051 b 35 743 175 1051 35 929 b 163 521 35 710 35 590 b 442 269 399 393 442 369 b 263 89 442 164 358 89 b 64 228 164 89 108 167 b 68 18 67 158 69 71 b 222 -10 108 7 178 -10 b 567 292 403 -10 567 110 b 325 571 567 464 447 517 b 147 774 247 606 147 660 b 319 951 147 867 225 951 b 499 840 414 951 474 872 z "},"T":{"ha":810,"x_min":0,"x_max":0,"o":"m 458 792 b 464 961 458 842 460 911 b 742 906 642 950 672 946 b 800 1046 758 967 782 1015 l 64 1046 l 15 894 b 344 961 108 946 211 953 l 346 221 b 311 0 346 171 346 96 l 494 0 b 458 221 468 63 458 108 z "},"U":{"ha":1071,"x_min":0,"x_max":0,"o":"m 931 708 b 964 1044 931 933 932 938 l 783 1044 b 819 682 815 933 819 907 l 819 417 b 801 275 819 358 819 315 b 540 110 771 206 683 110 b 279 253 518 110 332 110 b 254 468 254 318 254 408 l 254 792 b 289 1044 253 947 271 997 l 88 1044 b 133 817 128 961 132 897 l 139 297 b 200 125 139 260 139 201 b 478 -10 251 60 349 -10 b 819 147 590 -10 711 54 b 819 0 822 99 824 49 l 969 0 b 931 229 938 69 931 106 z "},"V":{"ha":1042,"x_min":0,"x_max":0,"o":"m 825 667 b 950 938 838 696 939 918 b 1026 1044 983 994 1001 1018 l 822 1044 b 826 993 825 1028 826 1011 b 729 676 826 921 763 761 b 522 203 686 568 589 324 b 260 879 403 485 260 878 b 235 1044 231 964 232 1003 l 15 1044 b 224 649 78 971 138 868 l 481 -10 l 553 -10 z "},"W":{"ha":1331,"x_min":0,"x_max":0,"o":"m 1194 800 b 1318 1044 1228 911 1268 983 l 1118 1044 b 1089 818 1122 942 1119 932 l 939 260 l 690 1044 l 431 244 l 257 832 b 224 988 240 890 224 950 b 235 1044 224 999 229 1026 l 15 1044 b 161 747 115 906 132 849 l 388 -10 l 463 -10 l 688 690 l 906 -10 l 968 -10 b 1049 294 992 88 1019 203 z "},"X":{"ha":926,"x_min":0,"x_max":0,"o":"m 785 954 b 854 1044 821 999 824 1004 l 663 1044 b 607 883 658 975 642 940 l 461 643 b 317 883 417 708 390 751 b 256 1044 260 986 258 1007 l 40 1044 b 249 771 125 967 188 868 l 397 531 l 238 271 b 21 0 161 149 97 71 l 244 0 b 339 228 251 46 258 99 l 464 428 l 604 197 b 661 36 628 158 661 104 l 658 0 l 908 0 b 724 231 836 58 801 106 l 531 538 l 746 894 z "},"Y":{"ha":897,"x_min":0,"x_max":0,"o":"m 743 872 b 885 1044 786 936 826 981 l 675 1044 l 678 1017 b 635 910 678 982 651 938 l 551 771 b 461 628 522 722 493 675 b 233 1044 333 815 250 936 l 25 1044 b 156 892 94 979 146 907 b 392 513 207 819 344 601 l 392 176 b 361 0 392 96 388 56 l 535 0 b 506 149 514 57 506 85 l 506 513 z "},"Z":{"ha":767,"x_min":0,"x_max":0,"o":"m 721 1044 l 143 1044 b 57 843 131 1011 94 928 b 501 958 161 899 271 958 l 535 958 b 450 785 489 857 481 842 l 246 394 l 139 200 b 18 0 101 133 60 65 l 657 0 l 717 172 b 218 94 539 88 414 90 z "},"[":{"ha":376,"x_min":0,"x_max":0,"o":"m 360 -219 l 360 -139 b 214 -132 338 -136 256 -131 b 214 110 210 -65 214 42 l 211 740 b 214 950 211 764 211 944 b 222 956 217 953 219 956 l 286 950 l 346 953 l 346 1044 l 115 1044 l 119 189 l 119 -219 z "},"\\":{"ha":738,"x_min":0,"x_max":0,"o":"m 178 1054 l 444 -8 l 535 -8 l 267 1054 z "},"]":{"ha":376,"x_min":0,"x_max":0,"o":"m 17 -219 l 257 -219 l 263 1044 l 31 1044 l 31 953 l 92 950 l 154 956 b 161 950 157 956 160 953 b 165 825 165 946 165 840 l 163 110 b 163 -132 163 75 165 -94 b 17 -139 119 -131 39 -136 z "},"^":{"ha":801,"x_min":0,"x_max":0,"o":"m 356 1044 l 40 414 l 142 414 l 400 942 l 661 414 l 761 414 l 444 1044 z "},"_":{"ha":694,"x_min":0,"x_max":0,"o":"m 694 -174 l 694 -104 l 0 -104 l 0 -174 z "},"‘":{"ha":289,"x_min":0,"x_max":0,"o":"m 189 714 b 164 790 172 738 164 763 b 279 1044 164 851 218 946 l 176 1044 b 8 714 143 1000 35 857 z "},"a":{"ha":564,"x_min":0,"x_max":0,"o":"m 476 524 b 278 739 476 646 424 739 b 110 713 197 739 138 721 l 89 583 b 251 661 157 636 194 661 b 375 454 374 661 378 544 b 142 350 326 425 294 411 b 21 169 108 338 21 301 b 192 0 21 88 67 0 b 253 7 207 0 240 0 b 368 93 271 17 349 79 l 368 0 l 518 0 b 469 217 476 61 469 72 z m 368 118 b 229 94 331 107 288 94 b 122 190 122 94 122 179 b 160 324 122 219 147 308 b 293 332 167 331 279 332 b 371 329 331 332 350 331 z "},"b":{"ha":738,"x_min":0,"x_max":0,"o":"m 124 218 b 88 0 125 133 124 94 l 279 0 b 689 400 528 0 689 164 b 438 725 689 547 613 725 b 296 693 372 725 328 707 b 219 594 258 629 243 614 l 219 836 b 231 956 219 861 219 907 l 256 1054 l 75 1015 l 92 969 b 118 814 118 901 118 879 z m 219 569 b 369 626 304 619 317 626 b 590 378 504 626 590 533 b 301 72 590 193 478 72 b 219 88 260 72 242 79 b 222 153 222 106 222 110 z "},"c":{"ha":608,"x_min":0,"x_max":0,"o":"m 592 125 b 433 96 565 113 526 96 b 297 115 401 96 340 97 b 150 375 214 150 150 258 b 415 657 150 571 311 657 b 578 578 479 657 539 628 l 585 725 b 485 739 556 733 536 739 b 46 358 214 739 46 558 b 389 -12 46 188 150 -12 b 506 1 425 -12 467 -6 z "},"d":{"ha":738,"x_min":0,"x_max":0,"o":"m 535 675 b 411 710 504 692 474 710 b 136 582 293 710 179 619 b 40 313 68 485 40 422 b 321 0 40 42 244 0 b 535 117 393 0 413 17 b 535 0 538 75 538 51 l 697 0 b 631 349 631 85 631 156 l 631 753 b 672 1054 631 943 654 1008 l 494 1010 b 535 765 526 932 535 901 z m 535 142 b 361 85 454 96 414 85 b 239 122 289 85 268 99 b 147 321 156 186 147 278 b 197 547 147 411 175 485 b 381 624 242 583 292 624 b 535 571 428 624 463 608 z "},"e":{"ha":608,"x_min":0,"x_max":0,"o":"m 561 164 b 340 75 461 101 399 75 b 193 182 307 75 232 92 b 168 356 164 247 167 318 b 315 361 203 358 231 361 b 575 353 425 361 463 360 b 550 589 576 421 579 515 b 335 739 501 717 392 739 b 53 328 219 739 53 649 b 138 67 53 206 79 132 b 336 -12 197 1 254 -12 b 490 21 410 -12 450 4 z m 490 425 b 174 432 485 425 240 421 b 332 660 178 504 200 660 b 490 425 346 660 507 660 z "},"f":{"ha":449,"x_min":0,"x_max":0,"o":"m 357 633 b 417 626 381 633 383 633 l 417 719 b 350 713 379 713 369 713 l 246 713 b 346 972 242 900 257 972 b 474 889 421 972 451 922 b 501 1032 489 975 492 988 b 411 1050 476 1035 469 1036 b 344 1057 378 1057 356 1057 b 163 897 258 1057 179 990 b 149 746 158 875 151 769 b 54 633 144 721 136 713 l 146 633 l 146 188 b 108 0 147 104 125 46 l 278 0 b 246 178 249 78 246 107 l 246 633 z "},"g":{"ha":708,"x_min":0,"x_max":0,"o":"m 89 -160 b 325 -228 89 -228 169 -228 b 457 -199 418 -228 418 -228 b 615 3 603 -90 615 -35 b 479 144 615 64 542 144 b 267 135 472 144 300 135 b 190 172 242 135 190 138 b 264 253 190 217 232 238 b 350 246 288 250 307 246 b 460 256 418 246 442 251 b 600 467 539 314 600 400 b 540 617 600 481 594 553 b 676 608 611 615 631 614 b 676 696 678 660 678 665 l 488 696 b 351 740 463 718 436 740 b 189 686 318 740 268 740 b 74 474 133 647 74 585 b 143 306 74 421 90 351 b 213 250 154 297 213 260 b 207 240 213 246 211 242 b 114 200 194 232 128 208 b 96 117 97 193 96 183 b 175 58 96 93 100 74 b 96 -21 146 21 140 17 z m 411 329 b 347 324 400 328 372 324 b 179 499 251 324 179 410 b 322 663 179 533 204 663 b 486 454 431 663 486 540 b 411 329 486 375 440 347 z m 404 57 b 521 -29 435 56 521 53 b 335 -137 521 -137 369 -137 b 183 -108 263 -137 192 -121 b 179 -40 179 -101 179 -51 b 194 57 179 22 182 28 z "},"h":{"ha":738,"x_min":0,"x_max":0,"o":"m 222 807 b 257 1057 222 936 239 999 l 71 1019 b 121 754 103 954 121 894 l 121 292 b 83 0 122 133 103 63 l 253 0 b 222 246 236 50 222 90 l 222 547 b 239 585 222 561 222 571 b 396 640 246 590 311 640 b 522 489 522 640 522 549 l 522 175 b 490 0 522 60 508 33 l 660 0 b 629 100 646 26 635 46 b 622 294 622 168 622 222 l 622 522 b 450 740 622 599 622 740 b 307 697 389 740 347 718 b 222 600 269 647 257 632 z "},"i":{"ha":318,"x_min":0,"x_max":0,"o":"m 207 468 b 240 726 207 586 217 626 l 76 726 b 107 538 107 639 107 582 l 107 254 b 76 0 107 106 92 53 l 235 0 b 207 203 222 35 207 79 z m 164 1008 b 90 924 158 1008 90 1008 b 161 835 90 869 121 835 b 239 926 200 835 239 864 b 164 1008 239 992 192 1008 z "},"j":{"ha":318,"x_min":0,"x_max":0,"o":"m 215 478 b 256 728 214 558 213 624 l 72 728 b 111 499 110 621 111 617 l 111 85 b 86 -128 111 56 110 -85 b 17 -228 74 -150 60 -172 l 117 -228 b 215 -19 215 -133 215 -103 z m 244 931 b 168 1008 244 950 238 1008 b 94 925 115 1008 94 964 b 169 839 94 868 133 839 b 244 931 194 839 244 856 z "},"k":{"ha":694,"x_min":0,"x_max":0,"o":"m 385 453 b 651 721 558 650 578 665 l 475 722 b 403 597 458 669 451 653 l 228 400 b 231 497 231 442 231 450 l 231 801 b 271 1054 231 917 243 965 l 86 1014 b 121 903 100 983 113 956 b 132 644 129 853 132 665 l 132 274 b 101 0 132 110 128 86 l 256 0 b 226 350 233 65 226 149 b 236 381 226 354 228 381 b 418 133 244 381 372 203 b 467 0 465 65 469 57 l 682 3 b 544 140 654 24 613 57 b 353 408 515 176 385 368 z "},"l":{"ha":318,"x_min":0,"x_max":0,"o":"m 107 225 b 75 0 107 88 96 57 l 256 0 b 208 228 214 90 208 135 l 208 717 b 250 1054 208 865 218 917 b 68 1015 192 1040 129 1026 b 107 672 97 949 107 876 z "},"m":{"ha":1085,"x_min":0,"x_max":0,"o":"m 222 728 l 86 728 b 129 489 128 654 128 625 l 129 204 b 96 0 129 104 129 85 l 254 0 b 229 153 236 51 229 78 l 229 536 b 376 633 254 574 299 633 b 501 436 503 633 501 514 l 501 269 b 471 0 501 113 493 75 l 632 0 b 601 204 618 31 601 71 l 601 522 b 671 604 633 569 647 588 b 765 635 700 625 738 635 b 874 472 874 635 874 549 l 874 168 b 846 0 874 86 868 68 l 1011 0 b 974 199 997 32 974 82 l 974 540 b 960 639 974 564 974 607 b 808 733 944 674 899 733 b 729 717 765 733 740 722 l 660 686 b 593 576 640 633 613 600 b 424 733 568 700 482 733 b 329 711 381 733 347 719 l 297 697 b 225 583 271 644 258 626 z "},"n":{"ha":738,"x_min":0,"x_max":0,"o":"m 228 726 l 71 726 b 128 515 117 669 128 638 l 128 189 b 90 0 128 79 106 32 l 256 0 b 228 183 235 49 228 76 l 228 508 b 236 568 228 554 228 558 b 404 636 276 614 346 636 b 528 394 526 636 528 542 l 528 217 b 500 0 528 82 514 40 l 668 0 b 629 229 650 39 629 82 l 629 490 b 611 638 629 536 629 593 b 460 733 581 706 515 733 b 319 696 397 733 356 713 l 228 600 z "},"o":{"ha":767,"x_min":0,"x_max":0,"o":"m 381 739 b 46 367 254 739 46 633 b 374 -12 46 106 225 -12 b 575 51 433 -12 526 8 b 721 371 715 178 721 315 b 381 739 721 544 621 739 z m 333 642 b 614 350 521 642 614 500 b 528 117 614 281 597 192 b 399 82 499 86 440 82 b 157 383 218 82 157 251 b 236 607 157 460 174 546 b 333 642 247 619 271 642 z "},"p":{"ha":724,"x_min":0,"x_max":0,"o":"m 108 14 b 75 -228 108 -75 106 -132 l 244 -228 b 208 69 208 -139 208 -111 b 221 99 208 86 211 99 b 292 31 231 99 256 67 b 371 17 301 21 338 17 b 676 393 483 17 676 79 b 421 731 676 728 433 731 b 206 594 369 731 296 706 l 208 728 l 47 728 b 106 510 99 643 106 600 z m 206 546 b 381 624 242 585 294 624 b 561 392 510 624 561 518 b 357 111 561 185 456 111 b 219 147 329 111 283 115 b 208 176 208 153 208 160 z "},"q":{"ha":738,"x_min":0,"x_max":0,"o":"m 431 49 l 482 118 b 511 138 492 131 501 138 b 518 117 518 138 518 126 l 518 -44 b 483 -228 518 -107 518 -150 l 653 -228 b 621 -126 649 -212 624 -143 b 617 -33 617 -103 617 -37 l 617 514 b 650 733 617 600 624 628 b 521 742 614 738 583 742 b 150 613 364 742 249 713 b 44 331 72 533 44 419 b 293 17 44 158 144 17 b 360 26 310 17 333 18 z m 518 176 b 343 117 474 146 433 117 b 153 353 153 117 153 336 b 369 640 153 381 160 640 b 526 621 421 640 472 631 b 518 550 521 596 518 572 z "},"r":{"ha":550,"x_min":0,"x_max":0,"o":"m 539 717 b 457 731 515 724 493 731 b 364 713 415 731 390 721 b 225 596 344 694 244 617 b 229 728 225 640 228 711 l 78 728 b 129 536 122 643 128 619 l 133 218 b 101 0 135 113 118 60 l 265 0 b 233 196 242 58 236 90 l 229 475 b 235 553 229 521 229 538 b 389 625 256 597 324 625 b 526 593 438 625 485 614 z "},"s":{"ha":521,"x_min":0,"x_max":0,"o":"m 456 718 b 299 739 408 728 356 739 b 64 538 196 739 64 674 b 215 329 64 399 174 349 b 383 174 321 281 383 251 b 256 72 383 143 369 72 b 58 206 149 72 115 114 b 51 15 57 81 56 68 b 224 -11 96 3 142 -11 b 492 193 460 -11 492 138 b 264 433 492 310 413 353 b 181 547 239 446 181 478 b 304 657 181 590 208 657 b 453 606 379 657 426 624 z "},"t":{"ha":478,"x_min":0,"x_max":0,"o":"m 244 908 l 13 636 l 131 639 b 138 119 135 465 138 293 b 285 -1 138 -1 214 -1 l 374 -1 b 465 101 413 44 424 58 b 332 89 429 96 382 89 b 238 321 256 89 238 133 b 242 639 238 456 242 635 l 447 639 l 447 735 b 404 726 431 726 426 726 l 242 726 z "},"u":{"ha":738,"x_min":0,"x_max":0,"o":"m 215 546 b 265 726 215 633 231 661 l 78 726 b 115 515 114 626 114 594 l 121 224 b 135 103 122 153 122 133 b 272 -7 153 53 203 -7 b 411 14 310 -7 351 1 b 517 132 429 40 454 75 l 517 0 l 656 0 b 618 190 633 56 617 103 l 621 504 b 671 726 622 631 643 672 l 488 726 b 517 549 517 629 517 594 l 517 158 b 340 96 478 131 425 96 b 228 168 274 96 242 140 b 215 272 222 181 215 197 z "},"v":{"ha":636,"x_min":0,"x_max":0,"o":"m 217 508 b 183 728 176 635 172 664 l 11 728 b 156 372 65 635 79 611 b 271 -12 164 349 258 35 l 328 -12 b 521 528 358 63 488 443 b 625 728 558 622 565 632 l 444 725 b 461 639 453 700 461 676 b 443 538 461 618 460 592 b 318 185 408 439 351 283 z "},"w":{"ha":897,"x_min":0,"x_max":0,"o":"m 819 579 b 851 661 833 633 840 643 b 886 728 878 703 881 714 l 743 728 b 756 658 750 696 756 675 b 635 219 756 636 724 533 l 489 728 l 435 728 b 290 289 415 664 317 360 b 263 222 281 263 272 243 l 181 575 b 169 650 172 607 169 622 b 181 728 169 671 174 690 l 11 724 b 97 501 61 651 83 564 l 211 -12 l 283 -12 b 446 508 336 172 372 290 l 518 261 b 593 -12 557 125 575 56 l 663 -12 z "},"x":{"ha":665,"x_min":0,"x_max":0,"o":"m 489 549 b 631 725 525 606 565 651 l 457 728 b 451 650 460 697 461 676 b 340 463 426 583 363 493 l 274 571 b 225 728 232 638 226 647 l 14 725 b 160 565 106 640 118 632 l 285 367 b 21 3 196 203 133 132 l 204 0 b 263 188 200 75 200 90 l 329 293 l 425 150 b 479 0 465 89 467 81 l 646 3 b 536 158 590 79 567 110 l 388 390 z "},"y":{"ha":694,"x_min":0,"x_max":0,"o":"m 685 728 l 524 728 l 531 658 b 375 254 531 597 386 275 b 224 572 333 318 267 472 b 199 663 208 608 199 633 l 200 728 l 13 728 b 101 585 78 625 85 614 l 285 207 b 318 147 293 188 308 157 b 85 -224 275 44 200 -115 l 192 -228 b 253 -182 231 -206 242 -194 b 383 40 290 -140 346 -31 b 629 622 424 121 589 531 z "},"z":{"ha":535,"x_min":0,"x_max":0,"o":"m 153 231 l 31 0 l 476 0 l 510 124 b 436 94 474 104 463 99 b 190 81 386 86 246 82 b 314 324 206 117 294 285 l 514 719 b 83 728 371 722 282 728 l 51 586 b 264 646 82 607 158 651 l 363 640 z "},"{":{"ha":463,"x_min":0,"x_max":0,"o":"m 176 -26 b 374 -229 176 -200 249 -229 l 374 -212 b 274 -35 299 -190 274 -135 l 274 226 b 167 411 274 329 258 386 l 167 414 b 274 599 258 439 274 496 l 274 860 b 374 1038 274 960 299 1015 l 374 1054 b 176 851 249 1054 176 1025 l 176 576 b 75 413 176 485 157 439 b 176 249 157 386 176 340 z "},"|":{"ha":738,"x_min":0,"x_max":0,"o":"m 324 -347 l 415 -347 l 415 1042 l 324 1042 z "},"}":{"ha":463,"x_min":0,"x_max":0,"o":"m 286 851 b 89 1054 286 1025 214 1054 l 89 1038 b 189 860 164 1015 189 960 l 189 599 b 296 414 189 496 204 439 l 296 411 b 189 226 204 386 189 329 l 189 -35 b 89 -212 189 -135 164 -190 l 89 -229 b 286 -26 214 -229 286 -200 l 286 249 b 388 413 286 340 306 386 b 286 576 306 439 286 485 z "},"~":{"ha":811,"x_min":0,"x_max":0,"o":"m 135 257 b 254 349 163 301 201 349 b 399 301 307 349 351 326 b 557 254 444 276 496 254 b 732 376 640 251 690 307 l 676 435 b 557 343 649 390 610 343 b 418 390 510 343 465 365 b 254 438 372 415 321 438 b 79 313 171 438 121 382 z "},"¡":{"ha":289,"x_min":0,"x_max":0,"o":"m 90 18 b 28 -318 90 -171 83 -225 l 258 -318 b 199 -8 219 -240 199 -200 l 199 211 b 150 504 199 335 190 396 l 136 504 b 90 232 113 436 90 376 z m 144 560 b 228 651 196 560 228 604 b 147 740 228 714 185 740 b 61 647 100 740 61 703 b 144 560 61 606 89 560 z "},"¢":{"ha":608,"x_min":0,"x_max":0,"o":"m 385 733 b 47 361 244 711 47 586 b 164 72 47 254 88 149 l 61 -236 l 144 -236 l 232 28 b 383 -10 269 11 314 -10 b 507 4 428 -10 467 -3 l 593 128 b 433 99 567 115 528 99 b 267 135 383 99 318 100 l 442 657 b 579 581 508 646 547 622 l 585 728 b 469 742 549 739 528 743 l 572 1051 l 490 1051 z m 206 199 b 151 374 182 235 151 282 b 357 651 151 535 253 625 z "},"£":{"ha":810,"x_min":0,"x_max":0,"o":"m 29 454 b 197 482 131 482 161 482 b 29 3 186 249 147 175 l 711 0 l 796 175 b 394 86 633 110 463 86 b 204 97 365 86 204 88 b 306 482 256 147 300 293 b 535 446 411 478 453 471 l 539 597 b 310 571 496 579 476 572 l 311 668 b 524 963 313 776 354 963 b 731 854 640 963 706 885 l 733 1018 b 542 1056 664 1042 600 1056 b 226 807 428 1056 258 982 b 201 571 207 699 206 643 b 29 592 171 569 101 571 z "},"⁄":{"ha":131,"x_min":0,"x_max":0,"o":"m 314 1054 l -268 -21 l -182 -21 l 399 1054 z "},"¥":{"ha":897,"x_min":0,"x_max":0,"o":"m 92 472 b 267 508 197 507 215 508 l 389 508 l 389 346 l 214 346 b 92 372 186 346 135 360 l 92 222 b 267 258 197 257 215 258 l 389 258 l 389 176 b 360 0 389 96 386 56 l 524 0 b 496 147 506 57 496 85 l 496 258 l 683 258 b 804 226 703 258 758 247 l 804 371 b 619 346 744 353 700 346 l 496 346 l 496 508 l 683 508 b 804 476 703 508 758 496 l 804 621 b 619 596 744 603 700 596 l 550 596 l 733 872 b 874 1044 778 938 817 981 l 674 1044 l 675 1011 b 633 904 675 976 650 932 l 550 765 b 450 613 524 722 490 671 b 224 1044 324 810 240 932 l 24 1044 b 153 892 92 979 143 907 b 340 596 194 836 288 688 l 214 596 b 92 622 186 596 135 610 z "},"ƒ":{"ha":810,"x_min":0,"x_max":0,"o":"m 642 664 b 574 657 603 657 593 657 l 472 657 b 636 974 524 904 547 974 b 735 889 697 974 718 922 b 793 1033 767 975 771 988 b 633 1057 742 1036 704 1057 b 433 908 549 1057 475 994 b 371 690 407 853 376 714 b 256 578 365 667 353 657 l 347 578 l 251 115 b 106 -144 213 -71 172 -144 b 18 -61 60 -144 33 -94 b -39 -204 -14 -146 -19 -158 b 94 -228 6 -208 43 -228 b 285 -108 189 -228 243 -176 b 353 82 325 -44 343 32 l 456 578 l 565 578 b 622 571 589 578 592 578 z "},"§":{"ha":564,"x_min":0,"x_max":0,"o":"m 497 361 b 508 463 503 392 508 425 b 329 644 508 590 386 626 b 136 813 206 681 136 713 b 293 950 136 950 257 950 b 400 919 317 950 351 950 b 474 858 413 911 461 867 b 471 1032 471 917 465 974 b 325 1054 429 1042 381 1054 b 31 801 181 1054 31 954 b 153 585 31 688 89 639 b 44 494 139 568 124 553 b 81 318 43 446 44 376 b 285 214 117 263 160 250 b 403 71 322 203 403 172 b 239 -76 403 -35 313 -76 b 58 42 115 -76 78 1 l 67 -132 b 251 -171 99 -153 126 -171 b 529 75 342 -171 529 -99 b 379 285 529 182 454 256 z m 321 528 b 406 418 378 510 406 485 b 357 294 406 349 383 324 l 283 317 b 150 465 160 353 150 424 b 181 574 150 510 167 547 z "},"¤":{"ha":956,"x_min":0,"x_max":0,"o":"m 479 642 b 682 433 596 642 682 544 b 479 222 682 319 596 222 b 274 433 363 222 274 319 b 479 642 274 544 363 642 z m 100 124 l 169 54 l 303 190 b 479 133 346 158 410 133 b 653 190 549 133 613 158 l 789 54 l 856 124 l 722 257 b 776 433 754 303 776 364 b 722 607 776 503 754 564 l 856 743 l 789 810 l 653 676 b 479 731 613 708 549 731 b 303 676 410 731 349 708 l 169 810 l 100 743 l 236 607 b 179 433 204 567 179 503 b 236 257 179 364 201 303 z "},"'":{"ha":261,"x_min":0,"x_max":0,"o":"m 99 692 l 161 692 l 193 878 l 193 1044 l 68 1044 l 68 878 z "},"“":{"ha":579,"x_min":0,"x_max":0,"o":"m 189 714 b 164 790 172 738 164 763 b 279 1044 164 851 218 946 l 176 1044 b 8 714 143 1000 35 857 z m 478 714 b 453 790 461 738 453 763 b 568 1044 453 851 508 946 l 465 1044 b 297 714 433 1000 324 857 z "},"«":{"ha":665,"x_min":0,"x_max":0,"o":"m 621 711 l 515 711 l 361 415 l 515 114 l 621 114 l 488 415 z m 304 711 l 199 711 l 46 415 l 200 114 l 307 114 l 174 415 z "},"‹":{"ha":347,"x_min":0,"x_max":0,"o":"m 303 711 l 196 711 l 44 415 l 199 114 l 304 114 l 171 415 z "},"›":{"ha":347,"x_min":0,"x_max":0,"o":"m 43 711 l 176 415 l 43 114 l 149 114 l 303 415 l 149 711 z "},"–":{"ha":868,"x_min":0,"x_max":0,"o":"m 707 369 b 846 331 751 369 803 349 l 846 489 b 661 461 786 469 742 460 l 188 464 b 85 474 122 464 114 464 b 22 489 40 488 36 489 l 22 325 b 197 361 128 360 146 361 z "},"†":{"ha":810,"x_min":0,"x_max":0,"o":"m 21 513 b 163 529 67 521 118 529 l 354 529 b 343 -44 354 317 354 49 b 297 -218 332 -140 324 -160 l 508 -218 b 475 -81 489 -158 481 -135 b 460 213 467 13 460 150 l 460 529 l 610 529 b 790 513 650 529 688 526 l 790 661 b 618 635 669 638 654 635 l 460 635 b 464 878 460 675 458 814 b 508 1044 468 926 481 967 l 297 1044 b 343 897 324 990 336 963 b 354 635 349 843 357 740 l 131 635 b 19 663 106 635 83 640 z "},"‡":{"ha":810,"x_min":0,"x_max":0,"o":"m 790 707 b 578 678 717 686 674 678 l 461 678 b 510 1044 461 908 467 928 l 299 1044 b 357 678 329 986 353 942 l 188 678 b 19 707 104 678 82 683 l 19 556 b 357 575 136 576 158 578 l 357 253 l 143 253 b 19 282 104 253 64 267 l 19 133 b 183 150 74 143 113 150 l 357 150 b 299 -218 353 -100 328 -156 l 510 -218 b 461 150 481 -142 468 -54 l 521 150 b 790 132 594 150 717 143 l 790 282 b 563 253 718 263 672 253 l 461 253 l 461 575 l 519 575 b 790 556 626 575 729 564 z "},"·":{"ha":289,"x_min":0,"x_max":0,"o":"m 229 522 b 143 614 229 578 190 614 b 61 522 97 614 61 574 b 142 433 61 451 111 433 b 229 522 179 433 229 460 z "},"¶":{"ha":753,"x_min":0,"x_max":0,"o":"m 414 -153 l 414 986 l 494 986 l 494 -153 l 700 -153 l 700 -119 b 592 -81 644 -114 597 -111 b 586 19 589 -67 586 -28 l 586 872 b 596 985 586 950 588 972 b 700 1011 606 1000 642 1008 l 700 1044 l 344 1044 b 53 767 158 1044 53 906 b 322 483 53 625 139 489 l 322 19 b 317 -81 322 -28 322 -61 b 208 -119 311 -111 264 -114 l 208 -153 z "},"•":{"ha":492,"x_min":0,"x_max":0,"o":"m 246 678 b 58 486 142 678 56 593 b 246 303 58 386 142 303 b 433 486 351 303 433 386 b 246 678 433 593 351 678 z "},"‚":{"ha":289,"x_min":0,"x_max":0,"o":"m 125 -146 b 268 185 163 -90 242 26 l 85 185 b 128 94 99 171 128 142 b 21 -146 128 42 82 -39 z "},"„":{"ha":579,"x_min":0,"x_max":0,"o":"m 125 -146 b 268 185 163 -90 242 26 l 85 185 b 128 94 99 171 128 142 b 21 -146 128 42 82 -39 z m 414 -146 b 558 185 451 -90 531 26 l 375 185 b 417 94 388 171 417 142 b 310 -146 417 42 371 -39 z "},"”":{"ha":579,"x_min":0,"x_max":0,"o":"m 125 714 b 268 1044 163 769 242 886 l 85 1044 b 128 954 99 1031 128 1001 b 21 714 128 901 82 821 z m 414 714 b 558 1044 451 769 531 886 l 375 1044 b 417 954 388 1031 417 1001 b 310 714 417 901 371 821 z "},"»":{"ha":665,"x_min":0,"x_max":0,"o":"m 46 711 l 179 415 l 46 114 l 151 114 l 306 415 l 151 711 z m 363 711 l 493 415 l 360 114 l 467 114 l 621 415 l 468 711 z "},"…":{"ha":1389,"x_min":0,"x_max":0,"o":"m 315 79 b 231 169 315 133 276 169 b 147 78 183 169 147 129 b 228 -11 147 7 197 -11 b 315 79 265 -11 315 15 z m 778 79 b 693 169 778 133 739 169 b 610 78 646 169 610 129 b 690 -11 610 7 660 -11 b 778 79 728 -11 778 15 z m 1240 79 b 1156 169 1240 133 1201 169 b 1072 78 1108 169 1072 129 b 1153 -11 1072 7 1122 -11 b 1240 79 1190 -11 1240 15 z "},"‰":{"ha":1678,"x_min":0,"x_max":0,"o":"m 308 1053 b 53 790 149 1067 53 947 b 283 524 53 581 222 524 b 503 789 383 524 503 625 b 308 1053 503 965 381 1019 z m 417 788 b 285 592 417 649 339 592 b 146 788 219 592 146 651 b 286 978 146 922 224 978 b 417 788 347 978 417 918 z m 903 506 b 647 243 743 519 647 400 b 878 -24 647 33 817 -24 b 1097 242 978 -24 1097 78 b 903 506 1097 418 975 472 z m 1011 240 b 879 44 1011 101 933 44 b 740 240 814 44 740 104 b 881 431 740 375 818 431 b 1011 240 942 431 1011 371 z m 1431 506 b 1175 243 1271 519 1175 400 b 1406 -24 1175 33 1344 -24 b 1625 242 1506 -24 1625 78 b 1431 506 1625 418 1503 472 z m 1539 240 b 1407 44 1539 101 1461 44 b 1268 240 1342 44 1268 104 b 1408 431 1268 375 1346 431 b 1539 240 1469 431 1539 371 z m 786 1054 l 286 -22 l 372 -22 l 871 1054 z "},"¿":{"ha":550,"x_min":0,"x_max":0,"o":"m 422 504 b 197 269 365 354 336 324 b 60 144 143 249 99 197 b 36 18 36 113 36 35 b 133 -247 36 -156 100 -217 b 376 -328 219 -328 363 -328 b 522 -303 417 -328 428 -325 l 533 -135 b 358 -226 460 -206 439 -226 b 144 0 221 -226 144 -121 b 268 207 144 113 196 175 b 449 392 415 271 449 286 b 439 504 449 439 443 475 z m 424 560 b 503 651 481 560 503 618 b 421 740 503 700 467 740 b 338 651 371 740 338 699 b 424 560 338 604 368 560 z "},"`":{"ha":463,"x_min":0,"x_max":0,"o":"m 297 810 b 215 1044 258 874 238 918 l 111 1044 b 251 810 124 996 146 918 z "},"´":{"ha":463,"x_min":0,"x_max":0,"o":"m 214 808 b 353 1044 303 901 332 963 l 250 1044 b 167 808 231 908 190 847 z "},"ˆ":{"ha":463,"x_min":0,"x_max":0,"o":"m 164 1046 b 51 808 146 958 121 901 l 97 808 b 232 968 175 881 200 917 b 368 808 279 892 317 849 l 413 808 b 301 1046 342 906 319 963 z "},"˜":{"ha":463,"x_min":0,"x_max":0,"o":"m 46 832 b 115 925 39 913 94 925 b 178 907 144 925 163 915 b 347 835 293 842 306 835 b 488 1018 369 835 482 843 l 418 1018 b 349 925 428 954 386 925 b 221 982 324 925 313 931 b 117 1017 164 1014 136 1017 b -25 832 103 1017 -24 1010 z "},"¯":{"ha":463,"x_min":0,"x_max":0,"o":"m 457 847 l 457 946 l 7 946 l 7 847 z "},"˘":{"ha":463,"x_min":0,"x_max":0,"o":"m 7 1050 b 232 800 13 900 78 800 b 457 1049 443 800 453 981 l 421 1049 b 233 899 406 931 313 899 b 42 1050 143 899 63 933 z "},"˙":{"ha":463,"x_min":0,"x_max":0,"o":"m 247 847 b 321 1004 267 872 314 935 l 199 1004 b 142 847 188 946 179 917 z "},"¨":{"ha":463,"x_min":0,"x_max":0,"o":"m 393 847 b 450 1003 418 885 444 935 l 350 1003 b 296 847 340 944 331 910 z m 113 847 b 168 1003 163 928 165 972 l 68 1003 b 14 847 60 944 47 901 z "},"˚":{"ha":463,"x_min":0,"x_max":0,"o":"m 231 1032 b 125 925 174 1032 125 985 b 231 819 125 867 172 819 b 338 925 289 819 338 867 b 231 1032 338 985 289 1032 z m 232 989 b 294 926 265 989 294 961 b 232 863 294 890 265 863 b 168 926 197 863 168 890 b 232 989 168 961 197 989 z "},"¸":{"ha":463,"x_min":0,"x_max":0,"o":"m 156 -68 b 219 -50 178 -57 194 -50 b 285 -106 257 -50 285 -72 b 210 -167 285 -143 251 -167 b 132 -144 183 -167 165 -160 l 103 -204 b 204 -222 131 -212 160 -222 b 360 -104 331 -222 360 -147 b 229 1 360 -68 338 1 b 160 -7 201 1 181 -3 z "},"˝":{"ha":463,"x_min":0,"x_max":0,"o":"m 124 808 b 264 1044 213 901 243 963 l 160 1044 b 76 808 140 908 101 847 z m 301 808 b 442 1044 390 901 421 963 l 338 1044 b 254 808 318 908 279 847 z "},"˛":{"ha":463,"x_min":0,"x_max":0,"o":"m 293 -144 b 254 -167 286 -154 275 -167 b 207 -107 229 -167 207 -147 b 260 11 207 -78 224 -33 l 196 11 b 133 -115 154 -28 133 -74 b 253 -222 133 -172 179 -222 b 329 -199 292 -222 311 -210 z "},"ˇ":{"ha":463,"x_min":0,"x_max":0,"o":"m 51 1046 b 164 808 121 953 146 896 l 301 808 b 413 1046 319 892 342 949 l 368 1046 b 232 886 317 1006 279 963 b 97 1046 200 938 175 974 z "},"—":{"ha":1389,"x_min":0,"x_max":0,"o":"m 1231 369 b 1368 331 1264 369 1278 368 l 1368 489 b 1183 461 1301 467 1258 460 l 186 464 b 83 474 125 464 113 464 b 21 489 39 488 33 489 l 21 325 b 194 361 121 358 142 361 z "},"Æ":{"ha":1186,"x_min":0,"x_max":0,"o":"m 1121 1044 l 560 1044 l 117 267 b -64 0 64 172 0 86 l 138 0 b 343 468 176 168 199 203 l 588 468 l 585 189 b 556 0 583 104 582 78 l 1072 0 l 1161 174 b 699 97 926 107 913 103 l 701 468 l 856 468 b 1003 424 899 468 951 442 l 1069 568 l 703 568 l 707 951 l 819 949 b 1054 890 940 946 968 936 z m 593 929 b 588 568 592 869 590 619 l 399 568 z "},"ª":{"ha":376,"x_min":0,"x_max":0,"o":"m 328 924 b 194 1054 328 1003 286 1054 b 79 1038 140 1054 104 1044 l 63 943 b 178 1000 119 985 142 1000 b 246 878 244 1000 249 938 l 138 838 b 21 715 75 815 21 796 b 139 610 21 657 61 610 b 242 663 181 610 188 615 l 242 610 l 358 610 b 324 742 328 650 324 656 z m 242 686 b 163 675 225 682 199 675 b 103 726 153 675 103 675 b 122 803 103 742 110 764 b 244 804 136 806 214 807 z "},"Ł":{"ha":651,"x_min":0,"x_max":0,"o":"m 224 586 l 224 793 b 261 1044 224 879 226 965 l 72 1044 b 110 824 94 982 110 938 l 110 506 l 3 431 l 3 324 l 110 400 l 110 283 b 78 0 110 107 92 44 l 565 0 l 636 156 b 229 86 538 119 396 85 b 224 261 224 156 224 219 l 224 481 l 433 628 l 433 732 z "},"Ø":{"ha":1172,"x_min":0,"x_max":0,"o":"m 903 946 b 578 1054 804 1017 683 1054 b 50 517 294 1054 50 824 b 196 149 50 394 97 253 l 107 49 l 171 -11 l 263 92 b 574 -11 339 38 457 -11 b 699 0 601 -11 668 -10 b 939 125 758 19 863 69 b 1125 517 1082 228 1125 414 b 968 890 1125 649 1064 790 l 1064 999 l 1000 1054 z m 279 242 b 165 538 193 331 165 438 b 536 935 165 707 253 935 b 814 846 679 935 771 875 z m 878 789 b 1006 482 979 682 1006 564 b 890 201 1006 346 931 243 b 628 106 847 156 736 106 b 346 188 522 106 417 139 z "},"Œ":{"ha":1360,"x_min":0,"x_max":0,"o":"m 1311 1044 l 803 1044 b 739 1049 779 1044 761 1046 b 661 1051 718 1050 694 1051 b 239 918 438 1051 322 990 b 44 490 118 811 44 631 b 565 -14 44 236 246 -14 b 667 -7 615 -14 639 -10 b 789 0 696 -3 726 0 l 1279 0 l 1336 168 b 894 83 1251 128 1142 76 l 894 508 b 1185 454 1086 514 1131 488 b 1235 597 1215 538 1219 546 l 1094 596 l 894 597 l 894 957 b 1260 889 1103 963 1143 951 z m 785 113 b 615 89 747 103 694 89 b 176 524 311 89 176 306 b 603 947 176 767 333 947 b 781 924 675 947 733 935 z "},"º":{"ha":492,"x_min":0,"x_max":0,"o":"m 244 1054 b 22 829 158 1054 22 989 b 240 601 22 675 140 601 b 471 833 390 601 471 722 b 244 1054 471 942 400 1054 z m 214 988 b 386 819 332 988 386 904 b 335 688 386 742 350 703 b 257 667 315 667 271 667 b 110 839 142 667 110 772 b 214 988 110 903 135 988 z "},"æ":{"ha":940,"x_min":0,"x_max":0,"o":"m 500 353 b 903 360 600 353 794 356 b 875 603 906 443 907 535 b 668 739 846 667 769 739 b 485 647 588 739 542 699 b 283 739 414 714 368 739 b 150 729 264 739 171 726 l 104 608 b 239 653 140 624 193 653 b 372 585 281 653 344 647 b 382 440 385 557 385 531 b 147 338 321 408 303 401 b 32 164 63 304 32 238 b 206 -12 32 142 33 -12 b 251 0 228 -12 236 -10 l 406 100 b 629 -12 454 47 510 -12 b 853 47 732 -12 807 25 l 879 138 b 675 76 828 113 754 76 b 496 293 496 76 496 240 z m 500 431 b 532 581 497 476 494 533 b 676 644 554 610 601 644 b 819 431 719 644 825 614 z m 392 224 l 394 143 b 249 90 394 97 379 90 b 144 199 219 90 144 90 b 186 315 144 251 165 311 b 318 319 197 318 297 318 l 392 326 z "},"ı":{"ha":318,"x_min":0,"x_max":0,"o":"m 206 469 b 239 728 206 586 215 626 l 75 728 b 106 538 106 640 106 583 l 106 254 b 75 0 106 106 90 53 l 233 0 b 206 203 221 35 206 81 z "},"ł":{"ha":318,"x_min":0,"x_max":0,"o":"m 42 433 l 42 329 l 107 403 l 107 225 b 75 0 107 88 96 57 l 256 0 b 208 228 214 90 208 135 l 208 515 l 274 589 l 274 692 l 208 619 l 208 717 b 250 1054 208 865 218 917 b 68 1015 192 1040 129 1026 b 107 672 97 949 107 876 l 107 507 z "},"ø":{"ha":767,"x_min":0,"x_max":0,"o":"m 597 665 b 389 739 547 710 465 739 b 46 367 235 739 46 618 b 117 122 46 281 65 193 l 43 39 l 101 -12 l 169 65 b 374 -12 235 8 311 -12 b 575 51 433 -12 526 10 b 721 371 714 178 721 314 b 650 608 721 417 715 515 l 719 688 l 661 738 z m 194 211 b 157 383 168 265 157 322 b 236 607 157 461 175 547 b 339 642 250 622 271 642 b 519 576 444 642 503 592 z m 569 517 b 614 350 611 451 614 383 b 528 117 614 261 588 181 b 399 82 499 86 440 82 b 240 144 314 82 268 118 z "},"œ":{"ha":1157,"x_min":0,"x_max":0,"o":"m 1110 131 b 908 86 1047 101 979 86 b 743 192 863 86 779 107 b 721 371 724 240 722 290 l 1118 376 l 1122 454 b 881 739 1122 629 1021 739 b 646 599 751 739 703 674 b 403 739 604 654 535 739 b 39 358 222 739 39 608 b 338 -14 39 117 213 -14 b 493 22 417 -14 458 6 b 646 138 578 63 608 92 b 882 -8 693 58 733 -8 b 1033 11 950 -8 994 3 z m 721 442 b 743 578 721 481 721 533 b 878 663 763 617 801 663 b 1029 447 996 663 1031 568 z m 344 639 b 610 346 521 639 610 483 b 489 110 610 250 569 161 b 401 90 460 92 414 90 b 150 378 246 90 150 240 b 344 639 150 424 169 639 z "},"ß":{"ha":694,"x_min":0,"x_max":0,"o":"m 125 257 b 89 0 125 74 122 68 l 268 0 b 224 208 225 75 224 176 l 221 719 b 386 972 221 788 219 972 b 514 851 400 972 514 971 b 421 725 514 803 496 781 b 315 553 354 674 315 628 b 421 364 315 464 374 390 b 576 203 538 297 576 275 b 456 81 576 150 540 81 b 363 117 424 81 388 93 b 339 128 350 128 347 128 b 343 3 343 83 344 57 b 424 -8 365 -4 381 -8 b 658 221 513 -8 658 18 b 569 400 658 299 635 354 b 401 579 458 475 401 515 b 510 704 401 622 417 633 b 593 865 564 744 593 799 b 388 1049 593 946 544 1049 b 132 863 211 1049 150 921 b 118 696 118 818 117 743 z "},"¬":{"ha":926,"x_min":0,"x_max":0,"o":"m 722 150 l 814 150 l 814 536 l 114 536 l 114 444 l 722 444 z "},"µ":{"ha":767,"x_min":0,"x_max":0,"o":"m 225 546 b 275 726 225 633 240 661 l 88 726 b 125 514 124 625 124 593 l 126 -68 b 88 -228 126 -94 124 -126 l 275 -228 b 224 -46 239 -161 224 -133 l 224 17 b 306 -7 253 -3 282 -7 b 421 13 328 -7 361 0 b 526 132 439 40 464 75 l 526 0 l 665 0 b 628 190 643 56 626 103 l 631 504 b 681 726 632 631 653 672 l 497 726 b 526 549 526 629 526 594 l 526 158 b 350 96 488 131 435 96 b 238 168 283 96 251 140 b 225 272 232 181 225 197 z "},"™":{"ha":1389,"x_min":0,"x_max":0,"o":"m 338 1017 l 407 1017 b 500 922 464 1017 488 974 l 528 922 l 528 1044 l 49 1044 l 49 922 l 76 922 b 171 1017 89 974 113 1017 l 239 1017 l 239 586 b 169 511 239 519 242 519 l 169 483 l 407 483 l 407 511 b 338 586 335 519 338 519 z m 931 481 l 946 481 l 1157 908 l 1160 908 l 1160 586 b 1092 511 1160 519 1164 519 l 1092 483 l 1328 483 l 1328 511 b 1258 586 1256 519 1258 519 l 1258 940 b 1336 1017 1258 989 1275 1014 l 1336 1044 l 1193 1044 l 971 615 l 757 1044 l 589 1044 l 589 1017 b 685 947 629 1017 668 989 l 685 601 b 613 511 685 540 674 517 l 613 483 l 794 483 l 794 511 b 721 601 732 517 721 540 l 721 906 l 724 906 z "},"Ð":{"ha":897,"x_min":0,"x_max":0,"o":"m 24 469 b 132 486 69 479 107 483 l 132 224 b 88 0 132 113 132 103 l 319 0 b 686 153 399 0 571 51 b 840 519 790 244 840 368 b 247 1044 840 828 592 1044 l 88 1044 b 132 806 125 931 132 906 l 132 576 b 24 583 110 576 68 581 z m 488 582 b 303 576 428 576 383 576 l 246 576 l 246 958 b 714 492 549 947 714 717 b 538 164 714 324 603 211 b 246 79 425 85 314 81 l 246 486 l 325 486 b 488 472 386 486 442 479 z "},"½":{"ha":1143,"x_min":0,"x_max":0,"o":"m 285 1053 b 143 958 238 1022 165 975 l 218 954 l 215 643 b 183 507 214 586 214 574 l 314 507 b 290 614 294 550 289 568 l 299 1053 z m 756 333 b 739 401 740 375 739 388 b 838 483 739 436 767 483 b 935 400 889 483 935 454 b 789 179 935 357 908 314 b 647 4 686 61 672 42 l 1029 1 l 1049 106 b 872 60 1010 81 982 64 l 774 57 l 951 271 b 1018 403 994 325 1018 353 b 851 547 1018 479 943 547 b 667 403 742 547 657 488 z m 764 1054 l 183 -21 l 269 -21 l 849 1054 z "},"±":{"ha":926,"x_min":0,"x_max":0,"o":"m 418 471 l 114 471 l 114 379 l 418 379 l 418 131 l 510 131 l 510 379 l 814 379 l 814 471 l 510 471 l 510 719 l 418 719 z m 114 -33 l 814 -33 l 814 58 l 114 58 z "},"Þ":{"ha":681,"x_min":0,"x_max":0,"o":"m 143 271 b 108 0 144 160 144 129 l 293 0 b 257 254 268 69 258 93 l 361 254 b 654 536 531 254 654 356 b 525 776 654 579 651 693 b 304 832 479 806 426 832 l 256 832 b 292 1046 256 904 265 976 l 97 1046 b 140 810 125 983 139 953 z m 254 761 b 392 742 311 761 350 758 b 525 532 475 710 525 618 b 421 339 525 465 496 382 b 256 303 378 314 329 307 b 254 467 254 339 254 396 z "},"¼":{"ha":1143,"x_min":0,"x_max":0,"o":"m 942 546 l 879 546 b 649 281 844 492 733 367 b 613 258 629 260 625 258 l 613 203 l 671 207 l 864 207 l 864 96 b 833 0 864 47 856 33 l 971 3 b 940 94 953 39 940 61 l 940 210 l 968 213 b 1058 186 1017 213 1038 199 l 1058 283 b 985 268 1017 268 1011 268 l 939 268 z m 800 367 l 865 443 l 864 265 l 704 265 z m 285 1053 b 143 958 238 1021 165 974 l 218 954 l 215 643 b 183 506 214 586 214 574 l 314 506 b 290 614 294 549 289 567 l 299 1053 z m 765 1054 l 183 -21 l 269 -21 l 849 1054 z "},"÷":{"ha":926,"x_min":0,"x_max":0,"o":"m 814 306 l 814 397 l 114 397 l 114 306 z m 375 639 b 465 550 375 592 417 550 b 553 639 511 550 553 594 b 464 728 553 686 511 728 b 375 639 417 728 375 688 z m 375 64 b 465 -25 375 17 417 -25 b 553 64 511 -25 553 19 b 464 153 553 111 511 153 b 375 64 417 153 375 113 z "},"¦":{"ha":738,"x_min":0,"x_max":0,"o":"m 324 -243 l 415 -243 l 415 243 l 324 243 z m 324 451 l 415 451 l 415 938 l 324 938 z "},"°":{"ha":550,"x_min":0,"x_max":0,"o":"m 276 1053 b 71 850 163 1053 71 961 b 276 644 71 736 163 644 b 479 850 388 644 479 736 b 276 1053 479 961 388 1053 z m 276 1000 b 421 850 357 1000 421 931 b 276 697 421 767 357 697 b 129 850 193 697 129 767 b 276 1000 129 931 193 1000 z "},"þ":{"ha":724,"x_min":0,"x_max":0,"o":"m 67 1015 b 96 910 90 951 94 925 b 106 510 99 888 104 764 l 108 14 b 75 -228 108 -75 106 -132 l 244 -228 b 208 69 208 -139 208 -111 b 221 99 208 86 211 99 b 292 31 231 99 256 67 b 371 17 301 21 338 17 b 676 393 483 17 676 79 b 421 731 676 728 433 731 b 206 594 369 731 296 706 b 249 1054 206 853 211 892 l 178 1038 z m 206 546 b 381 624 242 585 294 624 b 561 392 510 624 561 518 b 357 111 561 185 456 111 b 219 147 329 111 283 115 b 208 176 208 153 208 160 z "},"¾":{"ha":1143,"x_min":0,"x_max":0,"o":"m 983 546 l 921 546 b 690 281 886 493 775 367 b 653 258 669 260 665 258 l 653 203 b 731 207 672 204 706 207 l 906 207 l 906 96 b 874 0 906 47 897 33 l 1013 3 b 982 94 994 39 982 61 l 982 210 l 1006 213 b 1100 186 1047 217 1085 197 l 1100 283 b 1026 268 1058 268 1053 268 l 981 268 z m 746 265 b 907 443 804 326 857 382 l 906 265 z m 225 757 b 411 665 290 758 411 760 b 279 550 411 613 365 550 b 167 638 196 550 182 593 l 103 529 b 263 501 135 517 172 501 b 497 664 463 501 497 626 b 349 810 497 726 453 792 l 499 1050 l 122 1050 b 110 949 125 1031 124 1022 b 296 992 156 975 188 992 l 382 992 z m 863 1054 l 279 -21 l 365 -21 l 946 1054 z "},"®":{"ha":1083,"x_min":0,"x_max":0,"o":"m 294 790 b 368 715 369 783 368 785 l 368 344 b 294 269 368 278 369 278 l 294 247 l 543 247 l 543 269 b 468 344 465 278 468 278 l 468 497 l 542 497 b 728 247 640 353 678 247 l 826 247 l 826 260 b 708 390 797 282 750 335 l 621 513 b 744 674 692 535 744 594 b 567 814 744 769 657 814 l 294 814 z m 468 785 l 532 785 b 640 665 592 785 640 754 b 535 525 640 583 608 525 l 468 525 z m 1063 521 b 543 1053 1063 817 833 1053 b 21 521 253 1053 21 814 b 543 -8 21 228 253 -8 b 1063 521 833 -8 1063 228 z m 110 521 b 543 988 110 769 303 988 b 974 521 783 988 974 769 b 543 57 974 275 781 57 b 110 521 303 57 110 275 z "},"−":{"ha":926,"x_min":0,"x_max":0,"o":"m 814 306 l 814 397 l 114 397 l 114 306 z "},"ð":{"ha":767,"x_min":0,"x_max":0,"o":"m 236 606 b 333 640 247 618 271 640 b 614 349 521 640 614 499 b 515 106 614 304 607 188 b 399 82 500 90 439 82 b 157 383 218 82 157 250 b 236 606 157 458 174 544 z m 232 781 l 421 863 b 575 640 476 807 535 726 b 358 728 508 714 436 728 b 46 365 239 728 46 631 b 374 -12 46 106 225 -12 b 574 51 433 -12 526 8 b 721 400 647 117 721 211 b 519 906 721 615 625 792 l 676 975 l 618 1036 l 457 965 b 360 1058 417 1001 372 1039 l 214 1003 b 356 921 249 993 300 965 l 174 842 z "},"×":{"ha":926,"x_min":0,"x_max":0,"o":"m 400 351 l 140 92 l 204 28 l 463 289 l 724 28 l 788 92 l 526 351 l 788 611 l 724 675 l 463 414 l 204 675 l 140 611 z "},"©":{"ha":1083,"x_min":0,"x_max":0,"o":"m 1063 521 b 543 1053 1063 817 833 1053 b 21 521 253 1053 21 814 b 543 -8 21 228 253 -8 b 1063 521 833 -8 1063 228 z m 110 521 b 543 988 110 769 303 988 b 974 521 783 988 974 769 b 543 57 974 275 781 57 b 110 521 303 57 110 275 z m 799 392 l 769 392 b 588 268 743 325 686 268 b 369 542 435 268 367 381 b 578 793 369 690 446 793 b 746 664 696 793 739 729 l 775 664 l 775 769 b 740 804 775 785 763 796 b 585 832 701 817 664 832 b 250 535 353 832 250 661 b 572 231 250 318 393 231 b 733 257 646 231 704 249 b 775 286 757 265 775 268 z "},"Á":{"ha":1085,"x_min":0,"x_max":0,"o":"m 585 1053 l 292 467 b 10 0 142 179 138 172 l 204 0 b 304 281 210 69 226 124 l 363 399 b 736 392 529 397 610 396 l 799 240 b 842 61 817 196 842 135 b 832 0 842 54 842 40 l 1064 0 b 985 119 1011 74 994 103 b 843 431 958 164 871 360 z m 407 501 l 563 826 l 699 490 z m 557 1097 b 719 1301 681 1185 701 1243 l 608 1301 b 489 1097 593 1242 575 1188 z "},"Â":{"ha":1085,"x_min":0,"x_max":0,"o":"m 585 1053 l 292 467 b 10 0 142 179 138 172 l 204 0 b 304 281 210 69 226 124 l 363 399 b 736 392 529 397 610 396 l 799 240 b 842 61 817 196 842 135 b 832 0 842 54 842 40 l 1064 0 b 985 119 1011 74 994 103 b 843 431 958 164 871 360 z m 407 501 l 563 826 l 699 490 z m 799 1097 b 668 1300 735 1168 699 1222 l 529 1300 b 399 1097 506 1238 475 1182 l 463 1097 b 599 1222 515 1133 560 1169 b 735 1097 651 1160 671 1142 z "},"Ä":{"ha":1085,"x_min":0,"x_max":0,"o":"m 585 1053 l 292 467 b 10 0 142 179 138 172 l 204 0 b 304 281 210 69 226 124 l 363 399 b 736 392 529 397 610 396 l 799 240 b 842 61 817 196 842 135 b 832 0 842 54 842 40 l 1064 0 b 985 119 1011 74 994 103 b 843 431 958 164 871 360 z m 407 501 l 563 826 l 699 490 z m 813 1110 b 890 1267 871 1190 879 1217 l 765 1267 b 708 1110 754 1206 744 1176 z m 465 1110 b 540 1267 518 1176 531 1213 l 418 1267 b 361 1110 403 1196 392 1167 z "},"À":{"ha":1085,"x_min":0,"x_max":0,"o":"m 585 1053 l 292 467 b 10 0 142 179 138 172 l 204 0 b 304 281 210 69 226 124 l 363 399 b 736 392 529 397 610 396 l 799 240 b 842 61 817 196 842 135 b 832 0 842 54 842 40 l 1064 0 b 985 119 1011 74 994 103 b 843 431 958 164 871 360 z m 407 501 l 563 826 l 699 490 z m 633 1096 b 514 1301 542 1189 525 1247 l 401 1301 b 568 1096 428 1201 493 1147 z "},"Å":{"ha":1085,"x_min":0,"x_max":0,"o":"m 581 1219 b 664 1136 625 1219 664 1183 b 581 1054 664 1090 626 1054 b 497 1136 535 1054 497 1090 b 581 1219 497 1183 535 1219 z m 799 240 b 842 61 817 196 842 135 b 832 0 842 54 842 40 l 1064 0 b 985 119 1011 74 994 103 b 843 431 958 164 871 360 l 608 997 b 722 1136 674 1011 722 1068 b 581 1278 722 1215 658 1278 b 439 1136 503 1278 439 1215 b 557 997 439 1067 489 1008 l 292 467 b 10 0 142 179 138 172 l 204 0 b 304 281 210 69 226 124 l 363 399 b 736 392 529 397 610 396 z m 407 501 l 563 826 l 699 490 z "},"Ã":{"ha":1085,"x_min":0,"x_max":0,"o":"m 585 1053 l 292 467 b 10 0 142 179 138 172 l 204 0 b 304 281 210 69 226 124 l 363 399 b 736 392 529 397 610 396 l 799 240 b 842 61 817 196 842 135 b 832 0 842 54 842 40 l 1064 0 b 985 119 1011 74 994 103 b 843 431 958 164 871 360 z m 407 501 l 563 826 l 699 490 z m 390 1096 b 465 1179 383 1174 443 1179 b 619 1126 496 1179 511 1175 b 736 1097 672 1103 701 1097 b 901 1279 772 1097 894 1110 l 825 1279 b 746 1194 835 1214 788 1194 b 582 1246 717 1194 683 1200 b 467 1278 531 1269 504 1278 b 311 1096 454 1278 325 1278 z "},"Ç":{"ha":926,"x_min":0,"x_max":0,"o":"m 410 -218 b 510 -229 443 -224 469 -229 b 674 -114 636 -229 674 -162 b 558 -11 674 -33 592 -18 b 900 67 728 -4 818 32 l 911 235 b 560 89 831 172 726 89 b 172 513 340 89 172 246 b 572 965 172 789 360 965 b 882 838 736 965 835 878 l 882 1018 b 625 1054 815 1033 725 1054 b 39 514 260 1054 39 799 b 518 -10 39 296 190 10 l 467 -12 l 461 -71 b 518 -58 492 -60 504 -58 b 590 -118 553 -58 590 -76 b 504 -178 590 -161 539 -178 b 432 -161 493 -178 478 -176 z "},"É":{"ha":738,"x_min":0,"x_max":0,"o":"m 667 1044 l 93 1044 b 136 814 124 976 136 888 l 136 242 b 82 0 136 119 117 76 l 625 0 l 721 181 b 250 86 565 110 474 92 b 246 174 244 114 244 121 l 253 482 b 506 429 374 475 403 469 l 586 567 l 440 569 l 250 569 l 250 874 l 247 961 b 592 904 439 956 532 925 z m 385 1097 b 547 1301 508 1185 529 1243 l 436 1301 b 317 1097 421 1242 403 1188 z "},"Ê":{"ha":738,"x_min":0,"x_max":0,"o":"m 667 1044 l 93 1044 b 136 814 124 976 136 888 l 136 242 b 82 0 136 119 117 76 l 625 0 l 721 181 b 250 86 565 110 474 92 b 246 174 244 114 244 121 l 253 482 b 506 429 374 475 403 469 l 586 567 l 440 569 l 250 569 l 250 874 l 247 961 b 592 904 439 956 532 925 z m 588 1097 b 457 1300 524 1168 488 1222 l 318 1300 b 188 1097 294 1238 264 1182 l 251 1097 b 388 1222 304 1133 349 1169 b 524 1097 440 1160 460 1142 z "},"Ë":{"ha":738,"x_min":0,"x_max":0,"o":"m 667 1044 l 93 1044 b 136 814 124 976 136 888 l 136 242 b 82 0 136 119 117 76 l 625 0 l 721 181 b 250 86 565 110 474 92 b 246 174 244 114 244 121 l 253 482 b 506 429 374 475 403 469 l 586 567 l 440 569 l 250 569 l 250 874 l 247 961 b 592 904 439 956 532 925 z m 590 1110 b 668 1267 649 1190 657 1217 l 543 1267 b 486 1110 532 1206 522 1176 z m 243 1110 b 318 1267 296 1176 308 1213 l 196 1267 b 139 1110 181 1196 169 1167 z "},"È":{"ha":738,"x_min":0,"x_max":0,"o":"m 667 1044 l 93 1044 b 136 814 124 976 136 888 l 136 242 b 82 0 136 119 117 76 l 625 0 l 721 181 b 250 86 565 110 474 92 b 246 174 244 114 244 121 l 253 482 b 506 429 374 475 403 469 l 586 567 l 440 569 l 250 569 l 250 874 l 247 961 b 592 904 439 956 532 925 z m 460 1096 b 340 1301 368 1189 351 1247 l 228 1301 b 394 1096 254 1201 319 1147 z "},"Í":{"ha":376,"x_min":0,"x_max":0,"o":"m 243 850 b 285 1044 243 950 253 975 l 89 1044 b 131 814 124 958 131 935 l 131 217 b 88 0 131 128 125 106 l 285 0 b 244 192 250 103 246 136 z m 197 1097 b 360 1301 321 1185 342 1243 l 249 1301 b 129 1097 233 1242 215 1188 z "},"Î":{"ha":376,"x_min":0,"x_max":0,"o":"m 243 850 b 285 1044 243 950 253 975 l 89 1044 b 131 814 124 958 131 935 l 131 217 b 88 0 131 128 125 106 l 285 0 b 244 192 250 103 246 136 z m 400 1097 b 269 1300 336 1168 300 1222 l 131 1300 b 0 1097 107 1238 76 1182 l 64 1097 b 200 1222 117 1133 161 1169 b 336 1097 253 1160 272 1142 z "},"Ï":{"ha":376,"x_min":0,"x_max":0,"o":"m 243 850 b 285 1044 243 950 253 975 l 89 1044 b 131 814 124 958 131 935 l 131 217 b 88 0 131 128 125 106 l 285 0 b 244 192 250 103 246 136 z m 403 1110 b 481 1267 461 1190 469 1217 l 356 1267 b 299 1110 344 1206 335 1176 z m 56 1110 b 131 1267 108 1176 121 1213 l 8 1267 b -49 1110 -7 1196 -18 1167 z "},"Ì":{"ha":376,"x_min":0,"x_max":0,"o":"m 243 850 b 285 1044 243 950 253 975 l 89 1044 b 131 814 124 958 131 935 l 131 217 b 88 0 131 128 125 106 l 285 0 b 244 192 250 103 246 136 z m 272 1096 b 153 1301 181 1189 164 1247 l 40 1301 b 207 1096 67 1201 132 1147 z "},"Ñ":{"ha":1100,"x_min":0,"x_max":0,"o":"m 307 943 b 239 1044 269 993 261 1006 l 31 1044 b 131 939 78 1001 100 976 b 139 767 136 883 139 831 l 139 228 b 108 0 139 138 133 96 l 275 0 b 239 296 258 47 239 100 l 239 828 l 774 129 b 860 0 806 88 831 43 l 979 0 b 956 182 958 57 956 129 l 956 775 b 990 1044 951 935 964 971 l 804 1044 b 856 731 844 961 856 939 l 856 210 b 703 410 803 275 753 342 z m 343 1096 b 418 1179 336 1174 396 1179 b 572 1126 449 1179 464 1175 b 689 1097 625 1103 654 1097 b 854 1279 725 1097 847 1110 l 778 1279 b 699 1194 788 1214 740 1194 b 535 1246 669 1194 636 1200 b 419 1278 483 1269 457 1278 b 264 1096 407 1278 278 1278 z "},"Ó":{"ha":1172,"x_min":0,"x_max":0,"o":"m 682 -6 b 939 125 793 29 894 92 b 1125 517 1082 228 1125 414 b 578 1054 1125 788 890 1054 b 50 517 293 1054 50 824 b 574 -11 50 206 306 -11 b 682 -6 610 -11 663 -7 z m 871 182 b 626 106 789 136 728 106 b 165 536 419 106 165 233 b 536 935 165 710 254 935 b 1006 482 810 935 1006 711 b 871 182 1006 440 1003 315 z m 594 1097 b 757 1301 718 1185 739 1243 l 646 1301 b 526 1097 631 1242 613 1188 z "},"Ô":{"ha":1172,"x_min":0,"x_max":0,"o":"m 682 -6 b 939 125 793 29 894 92 b 1125 517 1082 228 1125 414 b 578 1054 1125 788 890 1054 b 50 517 293 1054 50 824 b 574 -11 50 206 306 -11 b 682 -6 610 -11 663 -7 z m 871 182 b 626 106 789 136 728 106 b 165 536 419 106 165 233 b 536 935 165 710 254 935 b 1006 482 810 935 1006 711 b 871 182 1006 440 1003 315 z m 796 1097 b 665 1300 732 1168 696 1222 l 526 1300 b 396 1097 503 1238 472 1182 l 460 1097 b 596 1222 513 1133 557 1169 b 732 1097 649 1160 668 1142 z "},"Ö":{"ha":1172,"x_min":0,"x_max":0,"o":"m 682 -6 b 939 125 793 29 894 92 b 1125 517 1082 228 1125 414 b 578 1054 1125 788 890 1054 b 50 517 293 1054 50 824 b 574 -11 50 206 306 -11 b 682 -6 610 -11 663 -7 z m 871 182 b 626 106 789 136 728 106 b 165 536 419 106 165 233 b 536 935 165 710 254 935 b 1006 482 810 935 1006 711 b 871 182 1006 440 1003 315 z m 801 1110 b 879 1267 860 1190 868 1217 l 754 1267 b 697 1110 743 1206 733 1176 z m 454 1110 b 529 1267 507 1176 519 1213 l 407 1267 b 350 1110 392 1196 381 1167 z "},"Ò":{"ha":1172,"x_min":0,"x_max":0,"o":"m 682 -6 b 939 125 793 29 894 92 b 1125 517 1082 228 1125 414 b 578 1054 1125 788 890 1054 b 50 517 293 1054 50 824 b 574 -11 50 206 306 -11 b 682 -6 610 -11 663 -7 z m 871 182 b 626 106 789 136 728 106 b 165 536 419 106 165 233 b 536 935 165 710 254 935 b 1006 482 810 935 1006 711 b 871 182 1006 440 1003 315 z m 669 1096 b 550 1301 578 1189 561 1247 l 438 1301 b 604 1096 464 1201 529 1147 z "},"Õ":{"ha":1172,"x_min":0,"x_max":0,"o":"m 682 -6 b 939 125 793 29 894 92 b 1125 517 1082 228 1125 414 b 578 1054 1125 788 890 1054 b 50 517 293 1054 50 824 b 574 -11 50 206 306 -11 b 682 -6 610 -11 663 -7 z m 871 182 b 626 106 789 136 728 106 b 165 536 419 106 165 233 b 536 935 165 710 254 935 b 1006 482 810 935 1006 711 b 871 182 1006 440 1003 315 z m 378 1096 b 453 1179 371 1174 431 1179 b 607 1126 483 1179 499 1175 b 724 1097 660 1103 689 1097 b 889 1279 760 1097 882 1110 l 813 1279 b 733 1194 822 1214 775 1194 b 569 1246 704 1194 671 1200 b 454 1278 518 1269 492 1278 b 299 1096 442 1278 313 1278 z "},"Š":{"ha":608,"x_min":0,"x_max":0,"o":"m 499 840 b 499 1011 499 844 496 957 b 346 1051 461 1029 408 1051 b 35 743 175 1051 35 929 b 163 521 35 710 35 590 b 442 269 399 393 442 369 b 263 89 442 164 358 89 b 64 228 164 89 108 167 b 68 18 67 158 69 71 b 222 -10 108 7 178 -10 b 567 292 403 -10 567 110 b 325 571 567 464 447 517 b 147 774 247 606 147 660 b 319 951 147 867 225 951 b 499 840 414 951 474 872 z m 383 1097 b 514 1300 414 1175 450 1229 l 450 1300 b 314 1175 386 1256 367 1238 b 178 1300 275 1226 231 1264 l 114 1300 b 244 1097 190 1215 221 1160 z "},"Ú":{"ha":1071,"x_min":0,"x_max":0,"o":"m 931 708 b 964 1044 931 933 932 938 l 783 1044 b 819 682 815 933 819 907 l 819 417 b 801 275 819 358 819 315 b 540 110 771 206 683 110 b 279 253 518 110 332 110 b 254 468 254 318 254 408 l 254 792 b 289 1044 253 947 271 997 l 88 1044 b 133 817 128 961 132 897 l 139 297 b 200 125 139 260 139 201 b 478 -10 251 60 349 -10 b 819 147 590 -10 711 54 b 819 0 822 99 824 49 l 969 0 b 931 229 938 69 931 106 z m 543 1097 b 706 1301 667 1185 688 1243 l 594 1301 b 475 1097 579 1242 561 1188 z "},"Û":{"ha":1071,"x_min":0,"x_max":0,"o":"m 931 708 b 964 1044 931 933 932 938 l 783 1044 b 819 682 815 933 819 907 l 819 417 b 801 275 819 358 819 315 b 540 110 771 206 683 110 b 279 253 518 110 332 110 b 254 468 254 318 254 408 l 254 792 b 289 1044 253 947 271 997 l 88 1044 b 133 817 128 961 132 897 l 139 297 b 200 125 139 260 139 201 b 478 -10 251 60 349 -10 b 819 147 590 -10 711 54 b 819 0 822 99 824 49 l 969 0 b 931 229 938 69 931 106 z m 746 1097 b 615 1300 682 1168 646 1222 l 476 1300 b 346 1097 453 1238 422 1182 l 410 1097 b 546 1222 463 1133 507 1169 b 682 1097 599 1160 618 1142 z "},"Ü":{"ha":1071,"x_min":0,"x_max":0,"o":"m 931 708 b 964 1044 931 933 932 938 l 783 1044 b 819 682 815 933 819 907 l 819 417 b 801 275 819 358 819 315 b 540 110 771 206 683 110 b 279 253 518 110 332 110 b 254 468 254 318 254 408 l 254 792 b 289 1044 253 947 271 997 l 88 1044 b 133 817 128 961 132 897 l 139 297 b 200 125 139 260 139 201 b 478 -10 251 60 349 -10 b 819 147 590 -10 711 54 b 819 0 822 99 824 49 l 969 0 b 931 229 938 69 931 106 z m 750 1110 b 828 1267 808 1190 817 1217 l 703 1267 b 646 1110 692 1206 682 1176 z m 403 1110 b 478 1267 456 1176 468 1213 l 356 1267 b 299 1110 340 1196 329 1167 z "},"Ù":{"ha":1071,"x_min":0,"x_max":0,"o":"m 931 708 b 964 1044 931 933 932 938 l 783 1044 b 819 682 815 933 819 907 l 819 417 b 801 275 819 358 819 315 b 540 110 771 206 683 110 b 279 253 518 110 332 110 b 254 468 254 318 254 408 l 254 792 b 289 1044 253 947 271 997 l 88 1044 b 133 817 128 961 132 897 l 139 297 b 200 125 139 260 139 201 b 478 -10 251 60 349 -10 b 819 147 590 -10 711 54 b 819 0 822 99 824 49 l 969 0 b 931 229 938 69 931 106 z m 619 1096 b 500 1301 528 1189 511 1247 l 388 1301 b 554 1096 414 1201 479 1147 z "},"Ý":{"ha":897,"x_min":0,"x_max":0,"o":"m 743 872 b 885 1044 786 936 826 981 l 675 1044 l 678 1017 b 635 910 678 982 651 938 l 551 771 b 461 628 522 722 493 675 b 233 1044 333 815 250 936 l 25 1044 b 156 892 94 979 146 907 b 392 513 207 819 344 601 l 392 176 b 361 0 392 96 388 56 l 535 0 b 506 149 514 57 506 85 l 506 513 z m 456 1097 b 618 1301 579 1185 600 1243 l 507 1301 b 388 1097 492 1242 474 1188 z "},"Ÿ":{"ha":897,"x_min":0,"x_max":0,"o":"m 743 872 b 885 1044 786 936 826 981 l 675 1044 l 678 1017 b 635 910 678 982 651 938 l 551 771 b 461 628 522 722 493 675 b 233 1044 333 815 250 936 l 25 1044 b 156 892 94 979 146 907 b 392 513 207 819 344 601 l 392 176 b 361 0 392 96 388 56 l 535 0 b 506 149 514 57 506 85 l 506 513 z m 644 1110 b 722 1267 703 1190 711 1217 l 597 1267 b 540 1110 586 1206 576 1176 z m 297 1110 b 372 1267 350 1176 363 1213 l 250 1267 b 193 1110 235 1196 224 1167 z "},"Ž":{"ha":767,"x_min":0,"x_max":0,"o":"m 721 1044 l 143 1044 b 57 843 131 1011 94 928 b 501 958 161 899 271 958 l 535 958 b 450 785 489 857 481 842 l 246 394 l 139 200 b 18 0 101 133 60 65 l 657 0 l 717 172 b 218 94 539 88 414 90 z m 449 1097 b 579 1300 479 1175 515 1229 l 515 1300 b 379 1175 451 1256 432 1238 b 243 1300 340 1226 296 1264 l 179 1300 b 310 1097 256 1215 286 1160 z "},"á":{"ha":564,"x_min":0,"x_max":0,"o":"m 476 524 b 278 739 476 646 424 739 b 110 713 197 739 138 721 l 89 583 b 251 661 157 636 194 661 b 375 454 374 661 378 544 b 142 350 326 425 294 411 b 21 169 108 338 21 301 b 192 0 21 88 67 0 b 253 7 207 0 240 0 b 368 93 271 17 349 79 l 368 0 l 518 0 b 469 217 476 61 469 72 z m 368 118 b 229 94 331 107 288 94 b 122 190 122 94 122 179 b 160 324 122 219 147 308 b 293 332 167 331 279 332 b 371 329 331 332 350 331 z m 267 808 b 406 1044 356 901 385 963 l 303 1044 b 219 808 283 908 243 847 z "},"â":{"ha":564,"x_min":0,"x_max":0,"o":"m 476 524 b 278 739 476 646 424 739 b 110 713 197 739 138 721 l 89 583 b 251 661 157 636 194 661 b 375 454 374 661 378 544 b 142 350 326 425 294 411 b 21 169 108 338 21 301 b 192 0 21 88 67 0 b 253 7 207 0 240 0 b 368 93 271 17 349 79 l 368 0 l 518 0 b 469 217 476 61 469 72 z m 368 118 b 229 94 331 107 288 94 b 122 190 122 94 122 179 b 160 324 122 219 147 308 b 293 332 167 331 279 332 b 371 329 331 332 350 331 z m 213 1046 b 100 808 194 958 169 901 l 146 808 b 281 968 224 881 249 917 b 417 808 328 892 365 849 l 461 808 b 350 1046 390 906 368 963 z "},"ä":{"ha":564,"x_min":0,"x_max":0,"o":"m 476 524 b 278 739 476 646 424 739 b 110 713 197 739 138 721 l 89 583 b 251 661 157 636 194 661 b 375 454 374 661 378 544 b 142 350 326 425 294 411 b 21 169 108 338 21 301 b 192 0 21 88 67 0 b 253 7 207 0 240 0 b 368 93 271 17 349 79 l 368 0 l 518 0 b 469 217 476 61 469 72 z m 368 118 b 229 94 331 107 288 94 b 122 190 122 94 122 179 b 160 324 122 219 147 308 b 293 332 167 331 279 332 b 371 329 331 332 350 331 z m 451 847 b 508 1003 476 885 503 935 l 408 1003 b 354 847 399 944 389 910 z m 171 847 b 226 1003 221 928 224 972 l 126 1003 b 72 847 118 944 106 901 z "},"à":{"ha":564,"x_min":0,"x_max":0,"o":"m 476 524 b 278 739 476 646 424 739 b 110 713 197 739 138 721 l 89 583 b 251 661 157 636 194 661 b 375 454 374 661 378 544 b 142 350 326 425 294 411 b 21 169 108 338 21 301 b 192 0 21 88 67 0 b 253 7 207 0 240 0 b 368 93 271 17 349 79 l 368 0 l 518 0 b 469 217 476 61 469 72 z m 368 118 b 229 94 331 107 288 94 b 122 190 122 94 122 179 b 160 324 122 219 147 308 b 293 332 167 331 279 332 b 371 329 331 332 350 331 z m 350 810 b 268 1044 311 874 290 918 l 164 1044 b 304 810 176 996 199 918 z "},"å":{"ha":564,"x_min":0,"x_max":0,"o":"m 476 524 b 278 739 476 646 424 739 b 110 713 197 739 138 721 l 89 583 b 251 661 157 636 194 661 b 375 454 374 661 378 544 b 142 350 326 425 294 411 b 21 169 108 338 21 301 b 192 0 21 88 67 0 b 253 7 207 0 240 0 b 368 93 271 17 349 79 l 368 0 l 518 0 b 469 217 476 61 469 72 z m 368 118 b 229 94 331 107 288 94 b 122 190 122 94 122 179 b 160 324 122 219 147 308 b 293 332 167 331 279 332 b 371 329 331 332 350 331 z m 279 1032 b 174 925 222 1032 174 985 b 279 819 174 867 221 819 b 386 925 338 819 386 867 b 279 1032 386 985 338 1032 z m 281 989 b 343 926 314 989 343 961 b 281 863 343 890 314 863 b 217 926 246 863 217 890 b 281 989 217 961 246 989 z "},"ã":{"ha":564,"x_min":0,"x_max":0,"o":"m 476 524 b 278 739 476 646 424 739 b 110 713 197 739 138 721 l 89 583 b 251 661 157 636 194 661 b 375 454 374 661 378 544 b 142 350 326 425 294 411 b 21 169 108 338 21 301 b 192 0 21 88 67 0 b 253 7 207 0 240 0 b 368 93 271 17 349 79 l 368 0 l 518 0 b 469 217 476 61 469 72 z m 368 118 b 229 94 331 107 288 94 b 122 190 122 94 122 179 b 160 324 122 219 147 308 b 293 332 167 331 279 332 b 371 329 331 332 350 331 z m 94 832 b 164 925 88 913 143 925 b 226 907 193 925 211 915 b 396 835 342 842 354 835 b 536 1018 418 835 531 843 l 467 1018 b 397 925 476 954 435 925 b 269 982 372 925 361 931 b 165 1017 213 1014 185 1017 b 24 832 151 1017 25 1010 z "},"ç":{"ha":608,"x_min":0,"x_max":0,"o":"m 250 -214 b 354 -239 276 -226 308 -239 b 497 -121 443 -239 497 -183 b 388 -12 497 -107 494 -19 b 507 0 443 -11 467 -7 l 592 124 b 433 94 567 113 528 94 b 297 114 401 94 340 96 b 150 374 214 149 150 257 b 417 657 150 571 311 657 b 579 578 479 657 539 628 l 585 725 b 485 739 556 733 536 739 b 46 357 214 739 46 558 b 218 29 46 232 106 90 b 376 -12 283 -4 350 -10 b 307 -26 344 -14 333 -17 l 303 -92 b 374 -65 331 -75 349 -65 b 431 -122 403 -65 431 -89 b 363 -183 431 -160 397 -183 b 289 -157 333 -183 313 -172 z "},"é":{"ha":608,"x_min":0,"x_max":0,"o":"m 561 164 b 340 75 461 101 399 75 b 193 182 307 75 232 92 b 168 356 164 247 167 318 b 315 361 203 358 231 361 b 575 353 425 361 463 360 b 550 589 576 421 579 515 b 335 739 501 717 392 739 b 53 328 219 739 53 649 b 138 67 53 206 79 132 b 336 -12 197 1 254 -12 b 490 21 410 -12 450 4 z m 490 425 b 174 432 485 425 240 421 b 332 660 178 504 200 660 b 490 425 346 660 507 660 z m 288 808 b 426 1044 376 901 406 963 l 324 1044 b 240 808 304 908 264 847 z "},"ê":{"ha":608,"x_min":0,"x_max":0,"o":"m 561 164 b 340 75 461 101 399 75 b 193 182 307 75 232 92 b 168 356 164 247 167 318 b 315 361 203 358 231 361 b 575 353 425 361 463 360 b 550 589 576 421 579 515 b 335 739 501 717 392 739 b 53 328 219 739 53 649 b 138 67 53 206 79 132 b 336 -12 197 1 254 -12 b 490 21 410 -12 450 4 z m 490 425 b 174 432 485 425 240 421 b 332 660 178 504 200 660 b 490 425 346 660 507 660 z m 235 1046 b 122 808 217 958 192 901 l 168 808 b 303 968 246 881 271 917 b 439 808 350 892 388 849 l 483 808 b 372 1046 413 906 390 963 z "},"ë":{"ha":608,"x_min":0,"x_max":0,"o":"m 561 164 b 340 75 461 101 399 75 b 193 182 307 75 232 92 b 168 356 164 247 167 318 b 315 361 203 358 231 361 b 575 353 425 361 463 360 b 550 589 576 421 579 515 b 335 739 501 717 392 739 b 53 328 219 739 53 649 b 138 67 53 206 79 132 b 336 -12 197 1 254 -12 b 490 21 410 -12 450 4 z m 490 425 b 174 432 485 425 240 421 b 332 660 178 504 200 660 b 490 425 346 660 507 660 z m 475 847 b 532 1003 500 885 526 935 l 432 1003 b 378 847 422 944 413 910 z m 194 847 b 250 1003 244 928 247 972 l 150 1003 b 96 847 142 944 129 901 z "},"è":{"ha":608,"x_min":0,"x_max":0,"o":"m 561 164 b 340 75 461 101 399 75 b 193 182 307 75 232 92 b 168 356 164 247 167 318 b 315 361 203 358 231 361 b 575 353 425 361 463 360 b 550 589 576 421 579 515 b 335 739 501 717 392 739 b 53 328 219 739 53 649 b 138 67 53 206 79 132 b 336 -12 197 1 254 -12 b 490 21 410 -12 450 4 z m 490 425 b 174 432 485 425 240 421 b 332 660 178 504 200 660 b 490 425 346 660 507 660 z m 371 810 b 289 1044 332 874 311 918 l 185 1044 b 325 810 197 996 219 918 z "},"í":{"ha":318,"x_min":0,"x_max":0,"o":"m 206 469 b 239 728 206 586 215 626 l 75 728 b 106 538 106 640 106 583 l 106 254 b 75 0 106 106 90 53 l 233 0 b 206 203 221 35 206 81 z m 138 808 b 276 1044 226 901 256 963 l 174 1044 b 90 808 154 908 114 847 z "},"î":{"ha":318,"x_min":0,"x_max":0,"o":"m 206 469 b 239 728 206 586 215 626 l 75 728 b 106 538 106 640 106 583 l 106 254 b 75 0 106 106 90 53 l 233 0 b 206 203 221 35 206 81 z m 89 1046 b -24 808 71 958 46 901 l 22 808 b 157 968 100 881 125 917 b 293 808 204 892 242 849 l 338 808 b 226 1046 267 906 244 963 z "},"ï":{"ha":318,"x_min":0,"x_max":0,"o":"m 206 469 b 239 728 206 586 215 626 l 75 728 b 106 538 106 640 106 583 l 106 254 b 75 0 106 106 90 53 l 233 0 b 206 203 221 35 206 81 z m 328 847 b 385 1003 353 885 379 935 l 285 1003 b 231 847 275 944 265 910 z m 47 847 b 103 1003 97 928 100 972 l 3 1003 b -51 847 -6 944 -18 901 z "},"ì":{"ha":318,"x_min":0,"x_max":0,"o":"m 206 469 b 239 728 206 586 215 626 l 75 728 b 106 538 106 640 106 583 l 106 254 b 75 0 106 106 90 53 l 233 0 b 206 203 221 35 206 81 z m 224 810 b 142 1044 185 874 164 918 l 38 1044 b 178 810 50 996 72 918 z "},"ñ":{"ha":738,"x_min":0,"x_max":0,"o":"m 228 726 l 71 726 b 128 515 117 669 128 638 l 128 189 b 90 0 128 79 106 32 l 256 0 b 228 183 235 49 228 76 l 228 508 b 236 568 228 554 228 558 b 404 636 276 614 346 636 b 528 394 526 636 528 542 l 528 217 b 500 0 528 82 514 40 l 668 0 b 629 229 650 39 629 82 l 629 490 b 611 638 629 536 629 593 b 460 733 581 706 515 733 b 319 696 397 733 356 713 l 228 600 z m 182 832 b 251 925 175 913 231 925 b 314 907 281 925 299 915 b 483 835 429 842 442 835 b 624 1018 506 835 618 843 l 554 1018 b 485 925 564 954 522 925 b 357 982 460 925 449 931 b 253 1017 300 1014 272 1017 b 111 832 239 1017 113 1010 z "},"ó":{"ha":767,"x_min":0,"x_max":0,"o":"m 381 739 b 46 367 254 739 46 633 b 374 -12 46 106 225 -12 b 575 51 433 -12 526 8 b 721 371 715 178 721 315 b 381 739 721 544 621 739 z m 333 642 b 614 350 521 642 614 500 b 528 117 614 281 597 192 b 399 82 499 86 440 82 b 157 383 218 82 157 251 b 236 607 157 460 174 546 b 333 642 247 619 271 642 z m 367 808 b 506 1044 456 901 485 963 l 403 1044 b 319 808 383 908 343 847 z "},"ô":{"ha":767,"x_min":0,"x_max":0,"o":"m 381 739 b 46 367 254 739 46 633 b 374 -12 46 106 225 -12 b 575 51 433 -12 526 8 b 721 371 715 178 721 315 b 381 739 721 544 621 739 z m 333 642 b 614 350 521 642 614 500 b 528 117 614 281 597 192 b 399 82 499 86 440 82 b 157 383 218 82 157 251 b 236 607 157 460 174 546 b 333 642 247 619 271 642 z m 315 1046 b 203 808 297 958 272 901 l 249 808 b 383 968 326 881 351 917 b 519 808 431 892 468 849 l 564 808 b 453 1046 493 906 471 963 z "},"ö":{"ha":767,"x_min":0,"x_max":0,"o":"m 381 739 b 46 367 254 739 46 633 b 374 -12 46 106 225 -12 b 575 51 433 -12 526 8 b 721 371 715 178 721 315 b 381 739 721 544 621 739 z m 333 642 b 614 350 521 642 614 500 b 528 117 614 281 597 192 b 399 82 499 86 440 82 b 157 383 218 82 157 251 b 236 607 157 460 174 546 b 333 642 247 619 271 642 z m 554 847 b 611 1003 579 885 606 935 l 511 1003 b 457 847 501 944 492 910 z m 274 847 b 329 1003 324 928 326 972 l 229 1003 b 175 847 221 944 208 901 z "},"ò":{"ha":767,"x_min":0,"x_max":0,"o":"m 381 739 b 46 367 254 739 46 633 b 374 -12 46 106 225 -12 b 575 51 433 -12 526 8 b 721 371 715 178 721 315 b 381 739 721 544 621 739 z m 333 642 b 614 350 521 642 614 500 b 528 117 614 281 597 192 b 399 82 499 86 440 82 b 157 383 218 82 157 251 b 236 607 157 460 174 546 b 333 642 247 619 271 642 z m 450 810 b 368 1044 411 874 390 918 l 264 1044 b 404 810 276 996 299 918 z "},"õ":{"ha":767,"x_min":0,"x_max":0,"o":"m 381 739 b 46 367 254 739 46 633 b 374 -12 46 106 225 -12 b 575 51 433 -12 526 8 b 721 371 715 178 721 315 b 381 739 721 544 621 739 z m 333 642 b 614 350 521 642 614 500 b 528 117 614 281 597 192 b 399 82 499 86 440 82 b 157 383 218 82 157 251 b 236 607 157 460 174 546 b 333 642 247 619 271 642 z m 197 832 b 267 925 190 913 246 925 b 329 907 296 925 314 915 b 499 835 444 842 457 835 b 639 1018 521 835 633 843 l 569 1018 b 500 925 579 954 538 925 b 372 982 475 925 464 931 b 268 1017 315 1014 288 1017 b 126 832 254 1017 128 1010 z "},"š":{"ha":521,"x_min":0,"x_max":0,"o":"m 456 718 b 299 739 408 728 356 739 b 64 538 196 739 64 674 b 215 329 64 399 174 349 b 383 174 321 281 383 251 b 256 72 383 143 369 72 b 58 206 149 72 115 114 b 51 15 57 81 56 68 b 224 -11 96 3 142 -11 b 492 193 460 -11 492 138 b 264 433 492 310 413 353 b 181 547 239 446 181 478 b 304 657 181 590 208 657 b 453 606 379 657 426 624 z m 78 1046 b 190 808 147 953 172 896 l 328 808 b 439 1046 346 892 368 949 l 394 1046 b 258 886 343 1006 306 963 b 124 1046 226 938 201 974 z "},"ú":{"ha":738,"x_min":0,"x_max":0,"o":"m 215 546 b 265 726 215 633 231 661 l 78 726 b 115 515 114 626 114 594 l 121 224 b 135 103 122 153 122 133 b 272 -7 153 53 203 -7 b 411 14 310 -7 351 1 b 517 132 429 40 454 75 l 517 0 l 656 0 b 618 190 633 56 617 103 l 621 504 b 671 726 622 631 643 672 l 488 726 b 517 549 517 629 517 594 l 517 158 b 340 96 478 131 425 96 b 228 168 274 96 242 140 b 215 272 222 181 215 197 z m 351 808 b 490 1044 440 901 469 963 l 388 1044 b 304 808 368 908 328 847 z "},"û":{"ha":738,"x_min":0,"x_max":0,"o":"m 215 546 b 265 726 215 633 231 661 l 78 726 b 115 515 114 626 114 594 l 121 224 b 135 103 122 153 122 133 b 272 -7 153 53 203 -7 b 411 14 310 -7 351 1 b 517 132 429 40 454 75 l 517 0 l 656 0 b 618 190 633 56 617 103 l 621 504 b 671 726 622 631 643 672 l 488 726 b 517 549 517 629 517 594 l 517 158 b 340 96 478 131 425 96 b 228 168 274 96 242 140 b 215 272 222 181 215 197 z m 300 1046 b 188 808 282 958 257 901 l 233 808 b 368 968 311 881 336 917 b 504 808 415 892 453 849 l 549 808 b 438 1046 478 906 456 963 z "},"ü":{"ha":738,"x_min":0,"x_max":0,"o":"m 215 546 b 265 726 215 633 231 661 l 78 726 b 115 515 114 626 114 594 l 121 224 b 135 103 122 153 122 133 b 272 -7 153 53 203 -7 b 411 14 310 -7 351 1 b 517 132 429 40 454 75 l 517 0 l 656 0 b 618 190 633 56 617 103 l 621 504 b 671 726 622 631 643 672 l 488 726 b 517 549 517 629 517 594 l 517 158 b 340 96 478 131 425 96 b 228 168 274 96 242 140 b 215 272 222 181 215 197 z m 539 847 b 596 1003 564 885 590 935 l 496 1003 b 442 847 486 944 476 910 z m 258 847 b 314 1003 308 928 311 972 l 214 1003 b 160 847 206 944 193 901 z "},"ù":{"ha":738,"x_min":0,"x_max":0,"o":"m 215 546 b 265 726 215 633 231 661 l 78 726 b 115 515 114 626 114 594 l 121 224 b 135 103 122 153 122 133 b 272 -7 153 53 203 -7 b 411 14 310 -7 351 1 b 517 132 429 40 454 75 l 517 0 l 656 0 b 618 190 633 56 617 103 l 621 504 b 671 726 622 631 643 672 l 488 726 b 517 549 517 629 517 594 l 517 158 b 340 96 478 131 425 96 b 228 168 274 96 242 140 b 215 272 222 181 215 197 z m 435 810 b 353 1044 396 874 375 918 l 249 1044 b 389 810 261 996 283 918 z "},"ý":{"ha":694,"x_min":0,"x_max":0,"o":"m 685 728 l 524 728 l 531 658 b 375 254 531 597 386 275 b 224 572 333 318 267 472 b 199 663 208 608 199 633 l 200 728 l 13 728 b 101 585 78 625 85 614 l 285 207 b 318 147 293 188 308 157 b 85 -224 275 44 200 -115 l 192 -228 b 253 -182 231 -206 242 -194 b 383 40 290 -140 346 -31 b 629 622 424 121 589 531 z m 331 808 b 469 1044 419 901 449 963 l 367 1044 b 283 808 347 908 307 847 z "},"ÿ":{"ha":694,"x_min":0,"x_max":0,"o":"m 685 728 l 524 728 l 531 658 b 375 254 531 597 386 275 b 224 572 333 318 267 472 b 199 663 208 608 199 633 l 200 728 l 13 728 b 101 585 78 625 85 614 l 285 207 b 318 147 293 188 308 157 b 85 -224 275 44 200 -115 l 192 -228 b 253 -182 231 -206 242 -194 b 383 40 290 -140 346 -31 b 629 622 424 121 589 531 z m 510 847 b 567 1003 535 885 561 935 l 467 1003 b 413 847 457 944 447 910 z m 229 847 b 285 1003 279 928 282 972 l 185 1003 b 131 847 176 944 164 901 z "},"ž":{"ha":535,"x_min":0,"x_max":0,"o":"m 153 231 l 31 0 l 476 0 l 510 124 b 436 94 474 104 463 99 b 190 81 386 86 246 82 b 314 324 206 117 294 285 l 514 719 b 83 728 371 722 282 728 l 51 586 b 264 646 82 607 158 651 l 363 640 z m 88 1046 b 200 808 157 953 182 896 l 338 808 b 449 1046 356 892 378 949 l 404 1046 b 268 886 353 1006 315 963 b 133 1046 236 938 211 974 z "},"Ω":{"ha":1136,"x_min":0,"x_max":0,"o":"m 1081 193 l 1049 196 b 932 76 1014 88 999 76 l 756 76 b 1013 572 865 189 1013 357 b 569 1038 1013 864 826 1038 b 119 557 318 1038 119 850 b 375 76 119 311 281 160 l 201 76 b 83 196 142 76 117 93 l 54 193 l 89 0 l 438 0 l 449 26 b 231 547 360 157 231 324 b 567 999 231 871 386 999 b 904 556 731 999 903 883 b 683 26 907 322 753 135 l 692 0 l 1044 0 z "},"μ":{"ha":767,"x_min":0,"x_max":0,"o":"m 225 546 b 275 726 225 633 240 661 l 88 726 b 125 514 124 625 124 593 l 126 -68 b 88 -228 126 -94 124 -126 l 275 -228 b 224 -46 239 -161 224 -133 l 224 17 b 306 -7 253 -3 282 -7 b 421 13 328 -7 361 0 b 526 132 439 40 464 75 l 526 0 l 665 0 b 628 190 643 56 626 103 l 631 504 b 681 726 632 631 653 672 l 497 726 b 526 549 526 629 526 594 l 526 158 b 350 96 488 131 435 96 b 238 168 283 96 251 140 b 225 272 232 181 225 197 z "},"π":{"ha":853,"x_min":0,"x_max":0,"o":"m 775 704 b 683 651 747 660 726 651 b 271 658 532 651 379 657 b 22 531 122 658 67 581 l 42 504 b 242 581 93 546 135 582 b 100 4 242 425 215 135 l 108 -18 b 188 7 129 -15 167 -1 b 289 544 208 31 289 207 l 289 579 b 560 576 353 579 463 578 b 543 167 551 456 543 303 b 665 -18 543 21 592 -18 b 810 79 715 -18 771 7 l 790 106 b 710 53 764 71 744 53 b 638 192 656 53 639 106 b 644 572 638 297 636 485 b 753 578 689 572 729 574 b 806 689 772 603 792 636 z "},"€":{"ha":842,"x_min":0,"x_max":0,"o":"m 799 238 b 522 92 736 175 654 92 b 229 415 375 92 258 221 l 646 415 l 668 486 l 224 486 b 222 513 224 494 222 504 b 225 572 222 533 224 553 l 693 572 l 717 643 l 232 643 b 533 964 264 843 374 964 b 776 836 663 964 739 876 l 776 1017 b 574 1053 724 1032 653 1053 b 126 643 332 1053 171 871 l 57 643 l 29 572 l 117 572 b 114 514 115 553 114 533 l 114 486 l 63 486 l 38 415 l 121 415 b 517 -8 150 210 272 -8 b 790 69 646 -8 740 43 z "},"ℓ":{"ha":597,"x_min":0,"x_max":0,"o":"m 544 169 b 375 60 503 108 447 60 b 229 317 289 60 229 111 l 229 458 b 454 908 351 585 454 731 b 331 1100 454 1007 414 1100 b 219 1043 288 1100 253 1082 b 140 629 151 971 140 889 l 140 446 l 28 353 l 44 324 l 140 397 l 140 265 b 192 53 140 149 157 93 b 333 -6 222 15 269 -6 b 569 149 436 -6 514 47 z m 229 722 b 314 1058 229 958 253 1058 b 392 906 365 1058 392 990 b 229 517 392 774 322 626 z "},"℮":{"ha":1278,"x_min":0,"x_max":0,"o":"m 1226 507 l 1226 521 b 638 1050 1226 814 964 1050 b 50 521 313 1050 50 814 b 638 -7 50 229 313 -7 b 1103 197 826 -7 997 74 l 1018 197 b 639 22 925 92 790 22 b 278 179 497 22 371 83 b 265 213 271 189 265 200 l 265 500 b 274 507 265 506 269 507 z m 1010 544 b 1004 535 1010 542 1008 535 l 274 535 b 265 544 269 535 265 542 l 265 828 b 281 864 265 842 271 854 b 639 1019 372 958 499 1019 b 996 868 778 1019 904 960 b 1010 835 1006 860 1010 847 z "},"∂":{"ha":797,"x_min":0,"x_max":0,"o":"m 399 656 b 156 543 303 656 211 607 b 68 299 108 486 68 400 b 344 -6 68 111 179 -6 b 644 224 485 -6 582 89 b 715 607 700 342 715 500 b 643 949 715 692 704 836 b 339 1157 574 1079 482 1157 b 126 1093 253 1157 178 1126 b 164 1019 113 1063 142 1017 b 369 1101 218 1065 292 1101 b 590 933 472 1101 558 1010 b 633 690 621 853 635 767 b 624 536 632 633 628 586 b 400 656 569 618 475 656 z m 425 603 b 614 479 518 603 593 522 b 538 192 597 360 583 285 b 342 36 499 114 436 36 b 168 257 233 36 167 140 b 238 514 168 356 189 447 b 424 603 289 578 351 603 z "},"∏":{"ha":1026,"x_min":0,"x_max":0,"o":"m 982 1024 l 43 1024 l 43 992 b 181 908 174 982 181 976 l 181 6 b 49 -97 181 -81 169 -87 l 49 -129 l 397 -129 l 397 -97 b 274 6 274 -86 274 -76 l 274 942 b 324 981 274 976 282 981 l 700 981 b 751 935 742 981 751 976 l 751 6 b 615 -97 751 -85 743 -89 l 615 -129 l 978 -129 l 978 -97 b 843 6 853 -87 843 -76 l 843 908 b 982 992 843 975 849 982 z "},"∑":{"ha":840,"x_min":0,"x_max":0,"o":"m 803 128 l 768 138 b 560 -47 707 -40 690 -47 l 136 -47 l 481 490 l 178 982 l 519 982 b 676 940 636 982 658 971 b 725 785 694 913 713 863 l 758 792 b 740 1024 751 885 742 997 l 53 1024 l 53 994 l 394 436 l 44 -103 l 44 -131 l 740 -131 z "},"∙":{"ha":289,"x_min":0,"x_max":0,"o":"m 229 522 b 143 614 229 578 190 614 b 61 522 97 614 61 574 b 142 433 61 451 111 433 b 229 522 179 433 229 460 z "},"√":{"ha":831,"x_min":0,"x_max":0,"o":"m 799 1328 l 750 1342 l 538 -12 l 535 -12 l 254 688 l 43 582 l 60 540 l 192 607 l 529 -218 l 553 -203 z "},"∞":{"ha":1144,"x_min":0,"x_max":0,"o":"m 1067 425 b 856 649 1067 557 983 649 b 578 471 732 649 657 558 b 303 649 500 561 414 649 b 75 419 172 649 75 551 b 293 193 75 292 175 193 b 574 371 414 193 494 282 b 844 193 678 254 750 193 b 1067 424 960 193 1067 283 z m 301 257 b 143 417 207 257 143 329 b 293 588 143 507 199 588 b 536 417 400 588 471 497 b 304 257 475 353 400 257 z m 847 588 b 1000 419 935 588 1000 526 b 850 257 1000 340 944 257 b 613 422 769 257 711 314 b 846 588 664 475 746 588 z "},"∫":{"ha":539,"x_min":0,"x_max":0,"o":"m 243 44 b 171 -228 251 -118 222 -228 b 100 -169 138 -228 136 -169 b 40 -225 65 -169 39 -196 b 119 -286 40 -257 69 -286 b 324 357 238 -286 350 -193 l 297 943 b 374 1210 288 1160 339 1210 b 449 1154 408 1210 406 1154 b 500 1204 476 1154 500 1171 b 422 1264 499 1244 453 1264 b 215 663 292 1264 193 1147 z "},"≈":{"ha":839,"x_min":0,"x_max":0,"o":"m 725 626 b 582 517 682 553 642 517 b 439 567 526 517 492 539 b 272 628 397 589 344 628 b 68 490 188 628 114 575 l 113 454 b 263 564 150 513 193 564 b 403 514 313 564 357 540 b 578 453 474 476 517 453 b 767 589 669 453 728 514 z m 725 381 b 582 269 682 307 643 269 b 439 322 525 269 488 294 b 271 382 397 343 344 382 b 68 244 188 382 114 329 l 113 207 b 263 318 150 265 192 318 b 403 268 313 318 357 294 b 578 207 474 231 515 207 b 767 343 669 207 728 268 z "},"≠":{"ha":839,"x_min":0,"x_max":0,"o":"m 592 736 l 539 761 l 458 589 l 76 589 l 76 525 l 431 525 l 331 306 l 76 306 l 76 242 l 301 242 l 232 90 l 285 65 l 367 242 l 761 242 l 761 306 l 394 306 l 496 525 l 761 525 l 761 589 l 524 589 z "},"≤":{"ha":839,"x_min":0,"x_max":0,"o":"m 758 140 l 758 219 l 158 507 l 158 510 l 757 793 l 757 872 l 85 542 l 85 472 z m 761 14 l 761 81 l 76 81 l 76 14 z "},"≥":{"ha":839,"x_min":0,"x_max":0,"o":"m 86 872 l 86 793 l 685 508 l 685 506 l 86 219 l 86 140 l 758 472 l 758 540 z m 760 14 l 760 81 l 78 81 l 78 14 z "},"◊":{"ha":842,"x_min":0,"x_max":0,"o":"m 765 493 l 457 1097 l 385 1097 l 75 493 l 383 -106 l 457 -106 z m 690 493 l 424 -32 l 419 -32 l 151 496 l 419 1021 l 424 1021 z "}," ":{"ha":463,"x_min":0,"x_max":0,"o":""},"­":{"ha":435,"x_min":0,"x_max":0,"o":"m 24 293 b 86 307 46 301 54 304 b 278 310 150 310 214 310 b 354 306 314 310 336 310 b 410 296 389 297 393 296 l 410 433 b 299 413 346 414 339 413 l 131 413 b 24 426 81 413 53 419 z "},"ˉ":{"ha":463,"x_min":0,"x_max":0,"o":"m 457 847 l 457 946 l 7 946 l 7 847 z "},"∕":{"ha":131,"x_min":0,"x_max":0,"o":"m 314 1054 l -268 -21 l -182 -21 l 399 1054 z "},"Ω":{"ha":1136,"x_min":0,"x_max":0,"o":"m 1081 193 l 1049 196 b 932 76 1014 88 999 76 l 756 76 b 1013 572 865 189 1013 357 b 569 1038 1013 864 826 1038 b 119 557 318 1038 119 850 b 375 76 119 311 281 160 l 201 76 b 83 196 142 76 117 93 l 54 193 l 89 0 l 438 0 l 449 26 b 231 547 360 157 231 324 b 567 999 231 871 386 999 b 904 556 731 999 903 883 b 683 26 907 322 753 135 l 692 0 l 1044 0 z "},"∆":{"ha":963,"x_min":0,"x_max":0,"o":"m 906 0 l 906 28 l 497 1038 l 453 1022 l 54 28 l 54 0 z m 786 57 l 124 57 l 451 896 z "},"ﬁ":{"ha":724,"x_min":0,"x_max":0,"o":"m 513 254 b 481 0 513 93 510 81 l 644 0 b 614 174 628 46 614 85 l 614 550 b 649 722 614 628 618 649 l 481 722 b 513 499 506 646 513 611 z m 654 903 b 583 988 654 946 625 988 b 500 901 558 988 500 963 b 575 817 500 857 531 817 b 654 903 603 817 654 839 z m 124 621 l 124 176 b 90 0 124 94 119 71 l 269 0 b 224 181 228 76 224 97 l 224 626 l 381 626 b 435 618 414 626 418 626 l 435 711 b 364 708 415 710 382 708 l 218 708 l 215 782 b 315 965 213 871 221 965 b 431 910 364 965 403 933 l 443 1043 b 332 1057 425 1047 375 1057 b 150 958 268 1057 188 1028 b 122 738 122 907 122 886 b 117 714 122 726 121 719 b 40 621 111 703 56 639 z "},"ﬂ":{"ha":724,"x_min":0,"x_max":0,"o":"m 514 225 b 479 0 514 175 510 79 l 654 0 b 614 181 642 33 614 104 l 614 790 b 654 1056 614 908 640 1006 b 500 1022 621 1046 528 1021 b 514 794 517 932 515 840 z m 122 622 l 122 199 b 88 0 124 121 119 94 l 260 0 b 222 185 247 33 222 100 l 222 625 l 435 625 l 435 708 l 222 708 l 222 824 b 304 975 222 889 222 975 b 443 890 361 975 404 929 l 429 1028 b 294 1056 356 1047 326 1056 b 161 992 240 1056 192 1031 b 122 844 138 961 122 925 l 122 742 b 103 697 122 724 122 719 b 32 622 78 669 57 649 z "},"¹":{"ha":507,"x_min":0,"x_max":0,"o":"m 285 1053 b 143 958 238 1022 165 975 l 218 954 l 215 643 b 183 506 214 586 214 574 l 314 506 b 290 614 294 550 289 568 l 299 1053 z "},"³":{"ha":507,"x_min":0,"x_max":0,"o":"m 171 757 b 357 665 236 758 357 760 b 225 550 357 613 311 550 b 113 638 142 550 128 593 l 49 529 b 208 501 81 517 118 501 b 443 664 408 501 443 626 b 294 810 443 726 399 792 l 444 1050 l 68 1050 b 56 949 71 1031 69 1022 b 242 992 101 975 133 992 l 328 992 z "},"²":{"ha":507,"x_min":0,"x_max":0,"o":"m 160 839 b 143 907 144 881 143 893 b 242 989 143 942 171 989 b 339 906 293 989 339 960 b 193 683 339 863 313 819 b 51 508 90 565 76 546 l 433 506 l 453 610 b 276 564 414 585 386 568 l 178 561 l 356 775 b 422 908 399 829 422 858 b 256 1053 422 985 347 1053 b 71 907 146 1053 61 993 z "},"‐":{"ha":435,"x_min":0,"x_max":0,"o":"m 24 293 b 86 307 46 301 54 304 b 278 310 150 310 214 310 b 354 306 314 310 336 310 b 410 296 389 297 393 296 l 410 433 b 299 413 346 414 339 413 l 131 413 b 24 426 81 413 53 419 z "}}}
